<?xml version="1.0" standalone="no"?>
<!DOCTYPE svg PUBLIC "-//W3C//DTD SVG 20010904//EN"
 "http://www.w3.org/TR/2001/REC-SVG-20010904/DTD/svg10.dtd">
<svg version="1.0" xmlns="http://www.w3.org/2000/svg"
 width="1920.000000pt" height="1920.000000pt" viewBox="0 0 1920.000000 1920.000000"
 preserveAspectRatio="xMidYMid meet">
<metadata>
Created by potrace 1.11, written by Peter Selinger 2001-2013
</metadata>
<g transform="translate(0.000000,1920.000000) scale(0.100000,-0.100000)"
fill="#000000" stroke="none">
<path d="M5289 11756 c-2 -2 -23 -6 -46 -10 -50 -6 -158 -54 -210 -92 -106
-78 -196 -217 -222 -341 -23 -114 -2 -263 54 -373 72 -139 234 -261 385 -289
76 -13 216 -7 270 13 25 9 50 18 55 20 74 21 185 112 247 202 25 36 69 125 74
149 1 6 7 30 12 55 25 107 -6 307 -59 381 -10 15 -19 31 -19 37 0 5 -31 41
-69 79 -109 110 -225 162 -377 169 -50 2 -93 2 -95 0z"/>
<path d="M6889 11756 c-2 -2 -22 -6 -45 -9 -61 -9 -162 -56 -226 -105 -57 -44
-138 -138 -138 -160 0 -7 -3 -12 -8 -12 -15 0 -59 -132 -66 -200 -3 -25 -6
-47 -7 -50 -1 -3 -1 -9 0 -14 1 -5 4 -35 6 -66 8 -116 72 -248 161 -337 220
-216 574 -214 790 5 75 76 135 188 153 284 22 124 -6 304 -60 379 -10 15 -19
31 -19 37 0 5 -31 41 -69 79 -109 110 -225 162 -377 169 -50 2 -93 2 -95 0z"/>
<path d="M8432 11745 c-119 -28 -253 -117 -324 -215 -33 -45 -81 -140 -71
-140 5 0 3 -4 -3 -8 -38 -25 -40 -258 -4 -362 34 -96 64 -142 149 -226 94 -92
212 -143 346 -149 181 -9 325 49 447 179 26 27 53 61 60 75 7 14 15 28 18 31
7 7 33 62 36 77 1 6 8 29 15 50 8 23 13 82 13 148 0 89 -5 122 -24 175 -59
165 -188 294 -350 349 -79 27 -229 35 -308 16z"/>
<path d="M11300 11656 l-55 -11 0 -409 c0 -224 2 -411 5 -415 10 -15 134 -34
209 -33 83 1 99 3 119 15 6 5 12 5 12 2 0 -12 75 38 104 69 51 55 70 111 73
214 1 51 -3 105 -9 120 -31 76 -41 92 -77 124 -64 59 -149 76 -246 51 -27 -7
-51 -13 -53 -13 -1 0 -2 35 -1 78 2 178 -1 222 -13 221 -7 -1 -38 -6 -68 -13z
m267 -394 c67 -37 88 -215 33 -292 -36 -50 -64 -63 -140 -63 -88 1 -79 -18
-79 174 l1 171 32 14 c36 15 121 14 153 -4z"/>
<path d="M10008 11556 c-2 -12 -3 -130 -2 -263 1 -224 14 -363 33 -363 4 0 14
-15 24 -32 22 -40 77 -80 137 -99 89 -29 262 -7 308 38 7 7 19 16 25 20 29 18
72 102 84 163 2 13 5 411 4 516 l-1 41 -64 -1 c-36 -1 -68 -4 -72 -8 -3 -4 -7
-128 -8 -275 -2 -167 -6 -277 -13 -293 -15 -34 -50 -69 -80 -81 -46 -17 -124
-11 -160 14 -64 43 -68 61 -71 365 -2 149 -6 273 -10 273 -4 1 -35 2 -69 3
-55 2 -62 0 -65 -18z"/>
<path d="M10914 11389 c-23 -4 -59 -12 -81 -18 l-40 -11 0 -280 c0 -277 0
-280 21 -281 12 -1 26 0 31 1 6 1 27 2 48 1 l37 -1 0 234 c0 183 3 235 13 239
20 8 129 5 160 -4 22 -6 27 -4 28 9 1 19 3 34 14 74 5 21 3 27 -14 33 -32 10
-171 13 -217 4z"/>
<path d="M11976 11388 l-48 -11 5 -49 c7 -57 14 -71 30 -61 17 11 34 13 102
17 91 5 138 -26 146 -94 4 -35 -1 -37 -93 -36 -76 0 -103 -4 -145 -23 -29 -13
-55 -32 -58 -42 -4 -10 -10 -19 -15 -19 -11 0 -21 -27 -27 -78 -6 -47 19 -127
46 -150 19 -16 77 -42 105 -48 26 -6 171 -5 211 2 17 2 44 6 62 8 17 2 35 6
40 9 5 3 8 100 8 215 -1 205 -2 211 -28 264 -38 78 -81 100 -201 103 -50 2
-113 -2 -140 -7z m238 -411 c0 -67 -2 -72 -25 -78 -13 -3 -49 -4 -79 -2 -44 3
-60 9 -78 29 -29 33 -27 90 4 110 31 21 103 31 144 21 l35 -8 -1 -72z"/>
<path d="M12658 11394 c-2 -1 -21 -4 -43 -7 -22 -3 -55 -8 -73 -12 l-33 -8 1
-283 c1 -259 3 -284 18 -285 18 -1 88 1 108 3 8 1 12 65 12 217 0 119 1 226 1
238 1 21 5 22 80 20 126 -4 134 -22 135 -301 l1 -169 24 -4 c14 -2 27 -5 29
-8 2 -2 15 0 28 5 14 6 26 6 29 0 3 -5 11 -7 18 -4 12 4 15 242 4 379 -8 103
-50 170 -126 203 -29 12 -203 26 -213 16z"/>
<path d="M5336 10163 c-3 -4 -25 -8 -49 -10 -73 -7 -78 -9 -183 -59 -71 -33
-153 -104 -205 -174 -33 -45 -77 -151 -89 -215 -21 -119 8 -300 61 -377 11
-14 19 -30 19 -35 0 -17 120 -133 173 -167 55 -36 163 -76 203 -76 13 0 26 -5
29 -10 4 -6 11 -7 17 -4 6 4 32 7 57 7 231 -4 454 163 525 390 25 82 30 201
11 289 -8 39 -19 76 -25 82 -5 5 -10 16 -10 23 0 26 -71 125 -127 179 -91 86
-202 137 -328 149 -32 4 -62 8 -66 10 -3 3 -9 2 -13 -2z"/>
<path d="M7006 10163 c-3 -4 -27 -6 -54 -6 -137 2 -284 -59 -387 -162 -105
-104 -166 -253 -161 -393 0 -23 -3 -42 -7 -42 -4 0 -4 -8 1 -17 5 -10 12 -38
16 -62 4 -24 15 -63 26 -87 11 -23 20 -46 20 -49 0 -14 66 -101 112 -147 52
-52 166 -119 233 -137 23 -6 67 -13 100 -16 32 -4 61 -6 64 -7 3 0 8 1 11 2 3
1 25 4 50 6 71 8 75 9 175 51 69 29 160 108 220 190 21 28 73 142 82 178 2 11
6 62 8 114 3 97 -12 183 -39 236 -9 17 -16 34 -16 38 0 5 -14 29 -32 55 -80
116 -205 205 -326 231 -31 7 -64 17 -73 21 -9 5 -20 6 -23 3z"/>
<path d="M8536 10163 c-3 -3 -21 -7 -39 -9 -19 -1 -49 -5 -68 -10 -19 -4 -36
-8 -39 -9 -3 -1 -22 -9 -44 -18 -21 -9 -42 -17 -47 -17 -5 0 -9 -3 -9 -8 0 -4
-13 -13 -29 -20 -33 -15 -123 -99 -162 -152 -33 -45 -77 -152 -88 -215 -15
-81 -6 -212 19 -285 69 -197 236 -338 439 -371 36 -5 68 -12 73 -15 4 -3 8 -2
8 3 0 4 18 7 39 7 140 -6 322 92 423 226 37 50 83 152 97 217 20 95 3 259 -33
328 -9 17 -16 34 -16 38 0 15 -64 101 -107 144 -43 43 -142 110 -155 105 -5
-1 -8 2 -8 6 0 5 -6 9 -12 10 -7 0 -33 8 -58 17 -25 9 -71 19 -103 21 -32 2
-62 6 -66 8 -5 3 -11 3 -15 -1z"/>
<path d="M14633 10016 c-29 -25 -34 -86 -10 -111 56 -56 147 -23 147 53 0 73
-80 107 -137 58z"/>
<path d="M15413 10022 c-22 -22 -34 -62 -27 -86 7 -21 40 -55 56 -57 4 -1 14
-2 21 -3 20 -4 66 23 78 45 15 30 2 86 -24 104 -28 18 -84 16 -104 -3z"/>
<path d="M10306 9988 c-123 -16 -228 -92 -281 -203 -33 -71 -40 -107 -37 -215
2 -100 2 -100 27 -169 26 -72 120 -171 175 -186 3 0 22 -7 42 -14 60 -20 160
-21 253 -2 112 23 120 31 98 99 -13 40 -21 51 -33 47 -55 -22 -142 -37 -195
-33 -114 7 -182 65 -211 178 -19 76 -14 181 11 229 8 17 15 34 15 38 -1 19 75
83 113 96 58 19 166 14 216 -10 40 -20 60 -18 65 8 2 8 8 27 14 42 7 16 12 32
12 37 0 15 -51 36 -115 48 -94 17 -106 18 -169 10z"/>
<path d="M14983 9949 c-18 -3 -33 -4 -33 -2 0 3 -6 0 -14 -6 -10 -9 -13 -54
-13 -209 -1 -108 -2 -201 -3 -207 -1 -5 -2 -12 -1 -15 1 -3 4 -43 5 -90 6
-161 62 -226 203 -234 40 -2 150 18 161 29 2 2 -1 28 -8 58 l-11 56 -32 -14
c-46 -19 -125 -11 -151 15 -19 19 -21 34 -24 180 l-4 160 49 1 c26 0 74 1 106
0 l58 0 -3 57 -3 57 -100 0 -100 0 -3 87 c-3 97 1 94 -79 77z"/>
<path d="M15920 9800 c0 -6 -4 -9 -9 -5 -20 12 -117 -37 -154 -78 -82 -90
-104 -247 -52 -370 53 -128 211 -188 385 -147 74 17 79 22 69 73 -4 23 -8 46
-9 51 0 4 -7 5 -17 2 -58 -23 -176 -25 -225 -5 -18 7 -43 24 -55 38 -22 25
-40 77 -30 87 3 3 88 5 190 5 209 0 198 -5 191 81 -4 43 -5 49 -19 103 -21 84
-103 152 -195 161 -30 3 -57 7 -62 10 -4 3 -8 0 -8 -6z m88 -129 c29 -15 49
-48 57 -88 l5 -33 -125 0 c-79 0 -125 4 -125 10 0 6 7 27 15 47 30 71 107 100
173 64z"/>
<path d="M10887 9793 c-3 -2 -11 -6 -19 -7 -63 -12 -145 -91 -172 -165 -10
-29 -19 -81 -19 -119 -3 -225 166 -363 369 -301 151 47 225 224 171 414 -17
59 -86 136 -145 161 -34 15 -175 28 -185 17z m130 -130 c97 -45 105 -267 13
-335 -62 -46 -151 -25 -190 43 -53 96 -22 269 54 299 32 12 87 9 123 -7z"/>
<path d="M11529 9796 c-2 -2 -24 -6 -49 -9 -54 -7 -87 -14 -98 -21 -4 -2 -7
-129 -7 -282 l0 -278 30 -6 c17 -3 48 -3 70 0 l40 5 0 235 0 235 32 1 c18 0
35 3 39 6 3 4 18 2 33 -3 14 -6 27 -10 29 -10 20 6 52 -46 57 -92 2 -18 4
-109 4 -204 l1 -171 65 -4 c37 -2 66 1 68 7 6 20 0 381 -7 413 -7 30 -6 33 29
47 38 16 98 18 127 3 41 -20 49 -68 50 -293 0 -88 4 -164 8 -170 5 -5 36 -8
70 -7 l62 4 -5 211 c-2 117 -7 222 -10 233 -26 100 -99 152 -209 148 -55 -2
-97 -8 -105 -14 -2 -2 -6 -3 -10 -4 -5 -1 -22 -10 -40 -19 -20 -11 -34 -13
-38 -7 -13 22 -83 42 -156 45 -42 2 -78 2 -80 1z"/>
<path d="M12499 9796 c-2 -3 -24 -6 -49 -8 -25 -2 -51 -7 -58 -12 -6 -4 -12
-5 -12 -1 0 3 -8 1 -18 -4 -16 -9 -17 -31 -17 -284 0 -152 3 -278 7 -282 7 -8
118 -9 125 -1 3 3 6 110 7 238 l1 233 57 3 c63 4 90 -7 115 -45 14 -22 17 -56
19 -225 0 -109 4 -201 7 -204 3 -4 32 -6 64 -6 43 0 58 3 62 15 8 22 5 357 -3
401 -6 29 -3 37 14 46 38 20 65 24 112 17 67 -10 79 -54 79 -290 1 -100 2
-184 4 -187 2 -3 33 -3 69 -2 l66 4 -3 216 c-2 215 -2 218 -30 274 -23 47 -36
61 -75 79 -71 35 -184 31 -262 -10 -24 -12 -42 -16 -45 -10 -13 21 -84 41
-156 45 -42 2 -78 2 -80 0z"/>
<path d="M14073 9788 c-35 -5 -73 -12 -85 -17 l-23 -9 0 -273 c1 -151 3 -278
7 -284 3 -6 34 -9 70 -7 l63 3 -1 235 c-1 230 0 235 20 239 51 10 76 12 76 6
0 -4 13 -6 29 -5 20 1 37 -6 51 -21 37 -39 38 -50 41 -437 0 -20 16 -24 84
-20 l52 4 -2 206 c-3 213 -4 217 -24 267 -41 101 -163 140 -358 113z"/>
<path d="M16453 9790 c-32 -7 -78 -33 -98 -54 -59 -63 -47 -190 21 -240 15
-10 65 -35 112 -55 72 -31 88 -42 99 -69 12 -29 11 -34 -7 -52 -16 -16 -33
-20 -87 -20 -64 0 -116 9 -154 24 -13 6 -18 -2 -24 -40 -3 -25 -9 -52 -11 -59
-5 -11 10 -17 81 -32 11 -3 61 -5 111 -5 77 -1 99 3 140 23 26 13 56 36 67 51
25 34 34 117 16 160 -18 45 -41 63 -129 104 -113 52 -121 57 -132 77 -14 27
-2 62 24 74 33 14 159 6 189 -13 10 -6 26 51 25 85 -1 18 -9 27 -31 33 -41 12
-173 17 -212 8z"/>
<path d="M13309 9780 c-5 -27 -2 -329 3 -379 17 -147 92 -211 245 -212 68 0
153 6 161 12 1 1 5 2 10 3 4 1 21 5 37 9 l31 8 -2 277 c-1 152 -2 280 -3 283
0 3 -30 5 -66 5 -59 0 -65 -2 -66 -20 0 -12 0 -119 0 -238 l1 -218 -25 -1
c-14 -1 -38 -2 -55 -2 -58 0 -69 3 -95 26 -14 12 -28 33 -31 47 -4 14 -7 107
-8 207 -2 101 -6 186 -10 190 -9 9 -125 12 -127 3z"/>
<path d="M14624 9775 c-2 -5 -2 -136 -1 -290 l2 -280 40 -5 c22 -3 52 -3 66
-2 l26 4 -1 291 -1 292 -64 0 c-35 1 -65 -4 -67 -10z"/>
<path d="M15400 9756 c0 -17 0 -53 0 -81 0 -27 1 -59 1 -70 1 -11 1 -36 0 -55
-1 -19 -1 -42 -1 -50 1 -125 0 -160 -3 -248 -2 -46 2 -50 63 -52 84 -4 76 -36
75 293 l0 292 -68 1 -67 1 0 -31z"/>
<path d="M6959 8566 c-2 -3 -31 -8 -64 -11 -33 -4 -78 -14 -100 -22 -22 -8
-45 -15 -50 -16 -56 -12 -189 -119 -241 -193 -33 -46 -74 -131 -67 -138 4 -3
2 -6 -4 -6 -10 0 -18 -36 -29 -123 -2 -16 -6 -33 -9 -38 -4 -5 -3 -9 2 -9 4 0
8 -20 7 -44 -1 -51 25 -157 49 -204 9 -18 24 -45 33 -62 18 -35 139 -158 168
-172 12 -5 37 -18 56 -28 89 -49 244 -70 360 -49 93 17 211 81 282 152 35 35
70 77 78 93 8 16 17 31 20 34 27 27 67 176 71 265 5 94 -47 254 -108 334 -94
124 -235 206 -387 226 -27 3 -53 8 -56 10 -4 3 -9 3 -11 1z"/>
<path d="M5232 8545 c-119 -28 -253 -117 -324 -215 -33 -45 -81 -140 -71 -140
5 0 3 -4 -3 -8 -37 -25 -40 -258 -4 -362 68 -194 236 -338 431 -369 74 -12
201 -8 242 8 15 6 27 9 27 6 0 -5 139 65 155 77 37 30 105 99 129 131 25 34
77 137 82 162 1 6 7 30 12 55 25 107 -6 307 -59 381 -10 15 -19 31 -19 36 0 5
-27 37 -60 71 -116 120 -230 171 -390 177 -54 2 -118 -2 -148 -10z"/>
<path d="M8437 8546 c-26 -7 -50 -14 -53 -14 -2 -1 -25 -10 -50 -22 -26 -11
-49 -20 -51 -20 -16 0 -129 -101 -162 -144 -36 -47 -71 -107 -77 -131 -2 -5
-10 -30 -19 -54 -34 -94 -26 -275 16 -368 10 -23 19 -45 19 -48 0 -14 67 -103
109 -143 87 -85 181 -134 292 -151 74 -12 201 -8 242 8 15 6 27 9 27 6 0 -5
140 65 158 80 70 54 137 136 172 209 45 95 50 114 55 221 5 108 -9 175 -55
270 -65 134 -183 239 -321 285 -80 26 -233 35 -302 16z"/>
<path d="M10816 8453 c-55 -19 -82 -43 -113 -102 l-27 -55 -1 -339 c0 -238 3
-344 11 -351 11 -11 110 -13 121 -2 3 3 5 109 6 236 0 205 1 230 16 231 9 1
52 2 96 4 44 1 85 3 90 4 6 0 10 25 10 54 l-1 52 -84 2 c-47 1 -96 2 -108 2
-22 1 -24 4 -19 44 11 104 57 134 172 113 l41 -7 13 52 c16 62 13 65 -74 74
-72 7 -102 5 -149 -12z"/>
<path d="M14153 8428 c-53 -26 -49 -125 6 -143 51 -16 64 -14 93 16 26 26 30
35 25 67 -10 62 -65 88 -124 60z"/>
<path d="M11494 8380 c-3 -2 -21 -5 -41 -7 -67 -4 -63 24 -63 -393 0 -297 3
-380 13 -381 6 0 30 0 52 0 22 1 48 2 58 2 19 0 19 -4 18 157 l0 112 42 1 c40
0 101 5 157 12 46 6 85 20 125 45 67 42 95 89 101 173 12 156 -71 251 -243
275 -57 8 -213 11 -219 4z m228 -130 c53 -15 88 -61 88 -115 0 -24 -5 -55 -11
-68 -13 -30 -59 -57 -99 -60 -16 -1 -30 -4 -30 -7 0 -3 -30 -5 -68 -5 l-67 0
-1 133 0 132 75 0 c42 0 93 -5 113 -10z"/>
<path d="M13715 8350 c-22 -4 -43 -6 -47 -4 -16 10 -19 -56 -16 -327 3 -280 3
-285 28 -334 20 -39 35 -55 72 -73 56 -28 137 -32 216 -12 53 14 54 15 47 45
-4 16 -8 39 -8 50 -2 21 -1 21 -96 11 -103 -10 -121 24 -121 224 0 105 3 140
13 141 6 0 53 1 102 2 l90 2 2 50 c2 27 -2 52 -7 55 -5 3 -52 5 -104 5 l-96 0
0 87 c0 98 4 93 -75 78z"/>
<path d="M12667 8199 c-9 -6 -23 -9 -29 -8 -7 1 -30 -1 -51 -6 l-39 -8 7 -46
c3 -25 7 -51 7 -58 1 -7 5 -10 9 -7 12 7 67 15 126 18 86 4 126 -26 136 -100
l5 -31 -92 1 c-96 0 -148 -12 -191 -45 -69 -55 -82 -180 -25 -251 21 -27 79
-59 120 -65 34 -6 164 -4 198 2 16 2 45 7 66 9 20 3 40 7 45 10 8 6 7 408 -2
443 -6 22 -33 69 -52 89 -28 29 -75 45 -151 49 -29 1 -56 5 -61 8 -4 3 -16 1
-26 -4z m152 -344 c13 -4 16 -19 16 -76 0 -88 2 -87 -132 -80 -26 1 -67 38
-71 65 -6 34 8 65 35 79 26 14 122 22 152 12z"/>
<path d="M15189 8199 c-7 -4 -16 -6 -20 -3 -11 6 -87 -23 -121 -47 -112 -80
-147 -286 -73 -428 42 -82 142 -132 259 -132 77 1 114 6 163 23 26 10 30 15
23 32 -9 26 -10 29 -10 62 0 20 -4 24 -19 19 -98 -31 -226 -22 -266 18 -22 23
-54 88 -49 102 3 6 69 9 193 8 219 -2 202 -12 188 110 -11 98 -44 157 -112
203 -29 19 -140 43 -156 33z m95 -140 c22 -19 31 -39 41 -91 3 -16 -7 -18
-121 -17 -121 1 -124 2 -121 23 9 52 37 89 79 105 36 14 94 4 122 -20z"/>
<path d="M10183 8189 c-13 -5 -23 -6 -23 -4 0 3 -19 -7 -42 -21 -110 -68 -160
-190 -137 -334 13 -85 49 -147 110 -193 61 -46 137 -60 232 -44 165 30 258
240 190 431 -21 58 -85 128 -140 152 -42 18 -155 26 -190 13z m130 -121 c76
-40 107 -190 60 -285 -56 -114 -198 -104 -246 17 -14 38 -17 128 -4 175 3 11
6 23 6 26 2 15 48 59 70 67 36 13 90 13 114 0z"/>
<path d="M12195 8188 c-22 -5 -56 -13 -76 -18 l-36 -10 -2 -72 c-2 -85 -2 -85
2 -140 1 -24 -1 -51 -6 -60 -4 -10 -4 -18 1 -18 5 0 6 -17 2 -39 -4 -22 -4
-44 -1 -49 3 -6 5 -48 5 -95 -1 -79 0 -85 20 -86 11 0 40 -2 64 -3 31 -2 43 1
46 12 3 8 5 113 4 234 0 172 3 221 14 228 7 5 52 7 99 4 l87 -5 8 37 c4 20 9
45 10 54 3 12 -6 19 -29 24 -46 11 -165 12 -212 2z"/>
<path d="M13264 8171 c-103 -49 -154 -133 -159 -267 -6 -154 56 -257 180 -300
60 -21 175 -20 249 2 16 5 18 13 13 55 -8 65 -12 70 -45 58 -15 -6 -57 -11
-93 -12 -116 -1 -162 52 -163 189 -1 70 2 85 24 117 45 67 114 85 217 58 30
-9 31 -8 43 33 6 22 13 46 16 52 8 20 -50 37 -136 40 -77 3 -92 1 -146 -25z"/>
<path d="M14593 8184 c-71 -25 -153 -112 -169 -179 -10 -37 -20 -115 -18 -131
12 -84 17 -105 35 -140 52 -97 136 -144 260 -144 39 0 90 5 115 11 l45 12 -6
51 c-9 64 -12 68 -36 56 -19 -11 -131 -16 -159 -7 -56 16 -75 32 -96 83 -15
35 -20 125 -9 174 12 59 80 110 147 112 33 1 95 -9 109 -18 8 -4 22 13 25 31
1 6 5 28 9 50 4 22 4 37 0 33 -5 -4 -14 -3 -22 3 -21 18 -181 20 -230 3z"/>
<path d="M14130 7894 l0 -292 25 -4 c14 -3 25 -2 25 3 0 4 12 4 28 0 59 -17
58 -24 57 294 l0 290 -67 1 -68 0 0 -292z"/>
</g>
</svg>
