<svg id="Layer_5" data-name="Layer 5" xmlns="http://www.w3.org/2000/svg" viewBox="0 0 240 240"><defs><style>.cls-1{fill:#ffd600;}.cls-2{fill:#17181a;}</style></defs><title>ic_contact</title><rect class="cls-1" width="240" height="240" rx="60" ry="60"/><path class="cls-2" d="M49,181.92a10.41,10.41,0,0,1,.64-3.57,9.86,9.86,0,0,1,1.89-3.19,9.54,9.54,0,0,1,3-2.28,9.21,9.21,0,0,1,4.06-.87,8.61,8.61,0,0,1,4.65,1.2,7.82,7.82,0,0,1,2.91,3.14L63.71,178a5.61,5.61,0,0,0-1-1.51,4.92,4.92,0,0,0-1.29-1A5.55,5.55,0,0,0,60,175a7.31,7.31,0,0,0-1.46-.15,5.73,5.73,0,0,0-2.74.63,6.09,6.09,0,0,0-2,1.67,7.43,7.43,0,0,0-1.2,2.32,8.52,8.52,0,0,0-.41,2.58,8.08,8.08,0,0,0,.48,2.77A7.49,7.49,0,0,0,54,187.13a6.55,6.55,0,0,0,2,1.61,5.57,5.57,0,0,0,2.58.6,6.52,6.52,0,0,0,1.5-.18,5.59,5.59,0,0,0,1.48-.59,5.93,5.93,0,0,0,1.32-1,5.11,5.11,0,0,0,1-1.48l2.6,1.48a6.09,6.09,0,0,1-1.34,2,8.57,8.57,0,0,1-2,1.44,10,10,0,0,1-2.31.9,9.75,9.75,0,0,1-2.39.31,8.24,8.24,0,0,1-3.84-.9,10.07,10.07,0,0,1-3-2.34,10.75,10.75,0,0,1-2-3.28A10.4,10.4,0,0,1,49,181.92Z"/><path class="cls-2" d="M75.58,192.28a7.62,7.62,0,0,1-3.12-.62,7.17,7.17,0,0,1-3.88-4.07,8.16,8.16,0,0,1,0-5.8,7.15,7.15,0,0,1,1.53-2.42,7.46,7.46,0,0,1,2.38-1.65,8.08,8.08,0,0,1,6.19,0,7.46,7.46,0,0,1,2.38,1.65,7.17,7.17,0,0,1,1.53,2.42,8.16,8.16,0,0,1,0,5.8A7.17,7.17,0,0,1,81.05,190a7.43,7.43,0,0,1-2.38,1.65A7.54,7.54,0,0,1,75.58,192.28Zm-4.37-7.56a5.53,5.53,0,0,0,.34,2,4.88,4.88,0,0,0,.92,1.55,4.32,4.32,0,0,0,1.39,1,4.1,4.1,0,0,0,3.44,0,4.23,4.23,0,0,0,1.39-1,5,5,0,0,0,.92-1.57,5.85,5.85,0,0,0,0-3.91,5,5,0,0,0-.92-1.58,4.23,4.23,0,0,0-1.39-1,4,4,0,0,0-1.72-.38,3.8,3.8,0,0,0-1.69.39,4.41,4.41,0,0,0-1.39,1.06,5.21,5.21,0,0,0-.94,1.58A5.36,5.36,0,0,0,71.21,184.72Z"/><path class="cls-2" d="M99,192H95.91v-8.2a5.35,5.35,0,0,0-.66-3,2.23,2.23,0,0,0-1.95-.94,3.8,3.8,0,0,0-1.34.25,4.69,4.69,0,0,0-1.26.71,5.55,5.55,0,0,0-1,1.09,5,5,0,0,0-.71,1.39V192H85.86V177.36h2.8v2.94A6,6,0,0,1,91.09,178a7.36,7.36,0,0,1,3.53-.85,4.34,4.34,0,0,1,2.16.48,3.57,3.57,0,0,1,1.33,1.3,5.71,5.71,0,0,1,.69,1.9,12.78,12.78,0,0,1,.2,2.28Z"/><path class="cls-2" d="M110.58,191.24a15.52,15.52,0,0,1-1.62.63,6.87,6.87,0,0,1-2.21.35,4.71,4.71,0,0,1-1.37-.2,3.37,3.37,0,0,1-1.13-.59,2.67,2.67,0,0,1-.77-1,3.75,3.75,0,0,1-.28-1.53v-9.16h-1.93v-2.38h1.93v-4.82h3.08v4.82h3.19v2.38h-3.19v8.18a1.52,1.52,0,0,0,.49,1.13,1.66,1.66,0,0,0,1.08.35,3.43,3.43,0,0,0,1.23-.22q.59-.22.87-.36Z"/><path class="cls-2" d="M116.6,192.28a5.45,5.45,0,0,1-2-.35,4.74,4.74,0,0,1-1.57-1,4.49,4.49,0,0,1-1-1.46,4.38,4.38,0,0,1-.38-1.82,3.93,3.93,0,0,1,.45-1.88,4.38,4.38,0,0,1,1.27-1.46,6.16,6.16,0,0,1,2-1,8.78,8.78,0,0,1,2.51-.34,11.5,11.5,0,0,1,2,.18,10.38,10.38,0,0,1,1.82.49v-1a3.4,3.4,0,0,0-.92-2.53,3.64,3.64,0,0,0-2.66-.91,6.42,6.42,0,0,0-2.31.43,11.73,11.73,0,0,0-2.34,1.25l-1-2a10.39,10.39,0,0,1,5.88-1.9,6.71,6.71,0,0,1,4.7,1.54,5.7,5.7,0,0,1,1.68,4.42v5.29q0,1,.81,1V192q-.45.08-.77.11l-.63,0a2,2,0,0,1-1.39-.45,1.92,1.92,0,0,1-.6-1.15l-.08-.92a6.53,6.53,0,0,1-2.42,2A7.12,7.12,0,0,1,116.6,192.28Zm.84-2.27a5.54,5.54,0,0,0,2.11-.41,3.64,3.64,0,0,0,1.55-1.13,1.42,1.42,0,0,0,.59-1.06v-1.93A9.37,9.37,0,0,0,120,185a9.17,9.17,0,0,0-1.72-.17,4.71,4.71,0,0,0-2.7.71,2.19,2.19,0,0,0-1.05,1.89,2.38,2.38,0,0,0,.81,1.83A3,3,0,0,0,117.44,190Z"/><path class="cls-2" d="M127.55,184.66a8,8,0,0,1,.53-2.91,7.13,7.13,0,0,1,3.92-4,7.86,7.86,0,0,1,3.14-.6,7.39,7.39,0,0,1,3.91,1,6.31,6.31,0,0,1,2.45,2.65l-3,1a3.86,3.86,0,0,0-1.43-1.44,3.91,3.91,0,0,0-2-.52,4.11,4.11,0,0,0-1.72.36,4.16,4.16,0,0,0-1.39,1,4.88,4.88,0,0,0-.92,1.55,5.62,5.62,0,0,0-.34,2,5.44,5.44,0,0,0,.35,2,5,5,0,0,0,1,1.58,4.38,4.38,0,0,0,1.4,1,3.89,3.89,0,0,0,1.69.38,4.22,4.22,0,0,0,1.12-.15,4,4,0,0,0,1.83-1.08,2.44,2.44,0,0,0,.52-.78l3,.9a6,6,0,0,1-2.44,2.7,7.55,7.55,0,0,1-4,1,7.64,7.64,0,0,1-3.11-.62,7.29,7.29,0,0,1-2.39-1.67,7.55,7.55,0,0,1-1.54-2.42A7.81,7.81,0,0,1,127.55,184.66Z"/><path class="cls-2" d="M152.3,191.24a15.52,15.52,0,0,1-1.62.63,6.87,6.87,0,0,1-2.21.35,4.71,4.71,0,0,1-1.37-.2,3.37,3.37,0,0,1-1.13-.59,2.67,2.67,0,0,1-.77-1,3.75,3.75,0,0,1-.28-1.53v-9.16H143v-2.38h1.93v-4.82H148v4.82h3.19v2.38H148v8.18a1.52,1.52,0,0,0,.49,1.13,1.66,1.66,0,0,0,1.08.35,3.43,3.43,0,0,0,1.23-.22q.59-.22.87-.36Z"/><path class="cls-2" d="M170,189.31a5,5,0,0,0,2.6-.62,4.92,4.92,0,0,0,1.67-1.61,6.78,6.78,0,0,0,.9-2.27,12.79,12.79,0,0,0,.27-2.62V172.12h3.16V182.2a15.05,15.05,0,0,1-.48,3.85,8.9,8.9,0,0,1-1.51,3.16,7.22,7.22,0,0,1-2.67,2.14,9,9,0,0,1-3.93.78,8.86,8.86,0,0,1-4-.83,7.24,7.24,0,0,1-2.65-2.21,9.08,9.08,0,0,1-1.46-3.18,15.28,15.28,0,0,1-.45-3.72V172.12h3.14V182.2a12.91,12.91,0,0,0,.27,2.65,6.79,6.79,0,0,0,.9,2.27,4.76,4.76,0,0,0,1.68,1.6A5.14,5.14,0,0,0,170,189.31Z"/><path class="cls-2" d="M187.38,192.28a11.24,11.24,0,0,1-3.51-.57,8.92,8.92,0,0,1-3-1.64l1.23-2a11.34,11.34,0,0,0,2.6,1.44,7.33,7.33,0,0,0,2.63.49,3.86,3.86,0,0,0,2.17-.53,1.71,1.71,0,0,0,.8-1.51,1.4,1.4,0,0,0-.9-1.34,18,18,0,0,0-2.8-.92q-1.37-.36-2.35-.7a6.05,6.05,0,0,1-1.6-.78,2.76,2.76,0,0,1-.9-1,3.3,3.3,0,0,1-.28-1.43,4.39,4.39,0,0,1,.43-2,4.27,4.27,0,0,1,1.2-1.47,5.39,5.39,0,0,1,1.81-.91,7.83,7.83,0,0,1,2.24-.31,9.19,9.19,0,0,1,3.08.5,8,8,0,0,1,2.55,1.46l-1.32,1.85a6.87,6.87,0,0,0-4.34-1.62,3.7,3.7,0,0,0-2,.49,1.69,1.69,0,0,0-.8,1.55,1.56,1.56,0,0,0,.17.76,1.42,1.42,0,0,0,.55.53,4.48,4.48,0,0,0,1,.41q.6.18,1.5.41,1.48.36,2.56.73a7,7,0,0,1,1.78.85,3.17,3.17,0,0,1,1,1.15,3.44,3.44,0,0,1,.34,1.58,4,4,0,0,1-1.58,3.32A6.87,6.87,0,0,1,187.38,192.28Z"/><path class="cls-2" d="M64.09,82.62a67.33,67.33,0,0,0,29.29,29.29l9.78-9.78a4.42,4.42,0,0,1,4.53-1.07,50.7,50.7,0,0,0,15.87,2.53A4.46,4.46,0,0,1,128,108v15.51a4.46,4.46,0,0,1-4.44,4.44A75.55,75.55,0,0,1,48,52.44,4.46,4.46,0,0,1,52.44,48H68a4.46,4.46,0,0,1,4.44,4.44A50.49,50.49,0,0,0,75,68.31a4.46,4.46,0,0,1-1.11,4.53Z"/></svg>