<svg id="Layer_3" data-name="Layer 3" xmlns="http://www.w3.org/2000/svg" viewBox="0 0 240 240"><defs><style>.cls-1{fill:#ffd600;}.cls-2{fill:#17181a;}</style></defs><title>ic_discussion</title><rect class="cls-1" width="240" height="240" rx="60" ry="60"/><path class="cls-2" d="M50.24,192V172.12H57.3a10.51,10.51,0,0,1,4.21.78,8.67,8.67,0,0,1,3,2.13,8.92,8.92,0,0,1,1.83,3.15A11.87,11.87,0,0,1,67,182a11.62,11.62,0,0,1-.69,4.1,9,9,0,0,1-1.95,3.14,8.64,8.64,0,0,1-3.05,2,10.74,10.74,0,0,1-4,.71Zm13.55-10a9.16,9.16,0,0,0-.43-2.88,6.27,6.27,0,0,0-1.27-2.25,5.94,5.94,0,0,0-2-1.47,6.73,6.73,0,0,0-2.74-.53H53.38v14.34H57.3a6.74,6.74,0,0,0,2.79-.55,5.71,5.71,0,0,0,2-1.51,6.52,6.52,0,0,0,1.25-2.28A9.33,9.33,0,0,0,63.79,182Z"/><path class="cls-2" d="M69.9,174.95v-3.39H73v3.39Zm0,17.05V177.36H73V192Z"/><path class="cls-2" d="M82,192.28a11.25,11.25,0,0,1-3.51-.57,8.92,8.92,0,0,1-3-1.64l1.23-2a11.34,11.34,0,0,0,2.6,1.44,7.34,7.34,0,0,0,2.63.49,3.86,3.86,0,0,0,2.17-.53,1.71,1.71,0,0,0,.8-1.51,1.4,1.4,0,0,0-.9-1.34,18,18,0,0,0-2.8-.92q-1.37-.36-2.35-.7a6,6,0,0,1-1.6-.78,2.75,2.75,0,0,1-.9-1,3.29,3.29,0,0,1-.28-1.43,4.38,4.38,0,0,1,.43-2,4.26,4.26,0,0,1,1.2-1.47,5.39,5.39,0,0,1,1.81-.91,7.84,7.84,0,0,1,2.24-.31,9.2,9.2,0,0,1,3.08.5,8,8,0,0,1,2.55,1.46l-1.32,1.85a6.87,6.87,0,0,0-4.34-1.62,3.7,3.7,0,0,0-2,.49,1.69,1.69,0,0,0-.8,1.55,1.57,1.57,0,0,0,.17.76,1.43,1.43,0,0,0,.55.53,4.47,4.47,0,0,0,1,.41q.6.18,1.5.41,1.48.36,2.56.73a7,7,0,0,1,1.78.85,3.18,3.18,0,0,1,1,1.15,3.43,3.43,0,0,1,.34,1.58,4,4,0,0,1-1.58,3.32A6.87,6.87,0,0,1,82,192.28Z"/><path class="cls-2" d="M89.61,184.66a8,8,0,0,1,.53-2.91,7.13,7.13,0,0,1,3.92-4,7.86,7.86,0,0,1,3.14-.6,7.39,7.39,0,0,1,3.91,1,6.3,6.3,0,0,1,2.45,2.65l-3,1a3.85,3.85,0,0,0-1.43-1.44,3.91,3.91,0,0,0-2-.52,4.11,4.11,0,0,0-1.72.36,4.15,4.15,0,0,0-1.39,1,4.86,4.86,0,0,0-.92,1.55,5.61,5.61,0,0,0-.34,2,5.43,5.43,0,0,0,.35,2,5.06,5.06,0,0,0,1,1.58,4.4,4.4,0,0,0,1.4,1,3.9,3.9,0,0,0,1.69.38,4.22,4.22,0,0,0,1.12-.15,4,4,0,0,0,1.83-1.08,2.43,2.43,0,0,0,.52-.78l3,.9a6,6,0,0,1-2.44,2.7,7.55,7.55,0,0,1-4,1,7.64,7.64,0,0,1-3.11-.62A7.28,7.28,0,0,1,91.69,190a7.56,7.56,0,0,1-1.54-2.42A7.82,7.82,0,0,1,89.61,184.66Z"/><path class="cls-2" d="M110.72,192.28a4.15,4.15,0,0,1-3.47-1.5,7.15,7.15,0,0,1-1.18-4.47v-9h3.08v8.34q0,3.95,2.8,3.95a4.31,4.31,0,0,0,2.49-.81,5.21,5.21,0,0,0,1.82-2.35v-9.13h3.08v11a1.21,1.21,0,0,0,.18.76.88.88,0,0,0,.66.25V192q-.48.08-.78.11l-.59,0a2.24,2.24,0,0,1-1.43-.46,1.52,1.52,0,0,1-.62-1.19l-.06-1.46a6.54,6.54,0,0,1-2.55,2.42A7.28,7.28,0,0,1,110.72,192.28Z"/><path class="cls-2" d="M128.58,192.28a11.24,11.24,0,0,1-3.51-.57,8.92,8.92,0,0,1-3-1.64l1.23-2a11.32,11.32,0,0,0,2.6,1.44,7.34,7.34,0,0,0,2.63.49,3.87,3.87,0,0,0,2.17-.53,1.71,1.71,0,0,0,.8-1.51,1.4,1.4,0,0,0-.9-1.34,18,18,0,0,0-2.8-.92q-1.37-.36-2.35-.7a6,6,0,0,1-1.6-.78,2.74,2.74,0,0,1-.9-1,3.29,3.29,0,0,1-.28-1.43,4.38,4.38,0,0,1,.43-2,4.28,4.28,0,0,1,1.2-1.47,5.39,5.39,0,0,1,1.81-.91,7.83,7.83,0,0,1,2.24-.31,9.19,9.19,0,0,1,3.08.5,8,8,0,0,1,2.55,1.46l-1.32,1.85a6.87,6.87,0,0,0-4.34-1.62,3.7,3.7,0,0,0-2,.49,1.69,1.69,0,0,0-.8,1.55,1.57,1.57,0,0,0,.17.76,1.42,1.42,0,0,0,.55.53,4.49,4.49,0,0,0,1,.41c.4.12.9.26,1.5.41q1.49.36,2.56.73a7,7,0,0,1,1.78.85,3.18,3.18,0,0,1,1,1.15,3.45,3.45,0,0,1,.34,1.58,4,4,0,0,1-1.58,3.32A6.88,6.88,0,0,1,128.58,192.28Z"/><path class="cls-2" d="M142.47,192.28a11.25,11.25,0,0,1-3.51-.57,8.91,8.91,0,0,1-3-1.64l1.23-2a11.37,11.37,0,0,0,2.6,1.44,7.33,7.33,0,0,0,2.63.49,3.86,3.86,0,0,0,2.17-.53,1.71,1.71,0,0,0,.8-1.51,1.4,1.4,0,0,0-.9-1.34,18,18,0,0,0-2.8-.92q-1.37-.36-2.35-.7a6.06,6.06,0,0,1-1.6-.78,2.77,2.77,0,0,1-.9-1,3.3,3.3,0,0,1-.28-1.43,4.39,4.39,0,0,1,.43-2,4.26,4.26,0,0,1,1.2-1.47,5.38,5.38,0,0,1,1.81-.91,7.84,7.84,0,0,1,2.24-.31,9.19,9.19,0,0,1,3.08.5,8,8,0,0,1,2.55,1.46l-1.32,1.85a6.87,6.87,0,0,0-4.34-1.62,3.7,3.7,0,0,0-2,.49,1.69,1.69,0,0,0-.8,1.55,1.56,1.56,0,0,0,.17.76,1.42,1.42,0,0,0,.55.53,4.46,4.46,0,0,0,1,.41q.6.18,1.5.41,1.48.36,2.56.73A7,7,0,0,1,147,185a3.17,3.17,0,0,1,1,1.15,3.43,3.43,0,0,1,.34,1.58,4,4,0,0,1-1.58,3.32A6.87,6.87,0,0,1,142.47,192.28Z"/><path class="cls-2" d="M151,174.95v-3.39h3.08v3.39ZM151,192V177.36h3.08V192Z"/><path class="cls-2" d="M164.39,192.28a7.62,7.62,0,0,1-3.12-.62,7.17,7.17,0,0,1-3.88-4.07,8.16,8.16,0,0,1,0-5.8,7.14,7.14,0,0,1,1.53-2.42,7.45,7.45,0,0,1,2.38-1.65,8.08,8.08,0,0,1,6.19,0,7.46,7.46,0,0,1,2.38,1.65,7.17,7.17,0,0,1,1.53,2.42,8.16,8.16,0,0,1,0,5.8,7.17,7.17,0,0,1-1.53,2.42,7.43,7.43,0,0,1-2.38,1.65A7.55,7.55,0,0,1,164.39,192.28ZM160,184.72a5.52,5.52,0,0,0,.34,2,4.89,4.89,0,0,0,.92,1.55,4.32,4.32,0,0,0,1.39,1,4.1,4.1,0,0,0,3.44,0,4.23,4.23,0,0,0,1.39-1,5,5,0,0,0,.92-1.57,5.85,5.85,0,0,0,0-3.91,5,5,0,0,0-.92-1.58,4.23,4.23,0,0,0-1.39-1,4,4,0,0,0-1.72-.38,3.8,3.8,0,0,0-1.69.39,4.41,4.41,0,0,0-1.39,1.06,5.23,5.23,0,0,0-.94,1.58A5.37,5.37,0,0,0,160,184.72Z"/><path class="cls-2" d="M187.8,192h-3.08v-8.2a5.35,5.35,0,0,0-.66-3,2.23,2.23,0,0,0-1.95-.94,3.8,3.8,0,0,0-1.34.25,4.68,4.68,0,0,0-1.26.71,5.56,5.56,0,0,0-1.05,1.09,5,5,0,0,0-.71,1.39V192h-3.08V177.36h2.8v2.94a6,6,0,0,1,2.44-2.34,7.36,7.36,0,0,1,3.53-.85,4.34,4.34,0,0,1,2.16.48,3.58,3.58,0,0,1,1.33,1.3,5.71,5.71,0,0,1,.69,1.9,12.73,12.73,0,0,1,.2,2.28Z"/><path class="cls-2" d="M131.6,65.6h-8.8v39.6H65.6V114a4.41,4.41,0,0,0,4.4,4.4h48.4L136,136V70A4.41,4.41,0,0,0,131.6,65.6ZM114,92V52.4a4.41,4.41,0,0,0-4.4-4.4H52.4A4.41,4.41,0,0,0,48,52.4V114L65.6,96.4h44A4.41,4.41,0,0,0,114,92Z"/></svg>