<svg id="Layer_6" data-name="Layer 6" xmlns="http://www.w3.org/2000/svg" viewBox="0 0 240 240"><defs><style>.cls-1{fill:#ffd600;}.cls-2{fill:#17181a;}</style></defs><title>ic_partner</title><rect class="cls-1" width="240" height="240" rx="60" ry="60"/><path class="cls-2" d="M58.5,167.14a8.72,8.72,0,0,1-3.88-.85,9.65,9.65,0,0,1-3-2.27,10.23,10.23,0,0,1-1.95-3.23,10.47,10.47,0,0,1-.69-3.72,10.15,10.15,0,0,1,.73-3.81,10.57,10.57,0,0,1,2-3.22,9.56,9.56,0,0,1,3-2.23,8.85,8.85,0,0,1,3.82-.83,8.5,8.5,0,0,1,3.88.88,9.76,9.76,0,0,1,3,2.31,10.62,10.62,0,0,1,1.93,3.23,10.37,10.37,0,0,1,0,7.49,10.06,10.06,0,0,1-2,3.21,9.83,9.83,0,0,1-3,2.21A8.78,8.78,0,0,1,58.5,167.14Zm-6.33-10.08a8.37,8.37,0,0,0,.45,2.72,7.37,7.37,0,0,0,1.27,2.32,6.21,6.21,0,0,0,2,1.61,5.69,5.69,0,0,0,2.63.6,5.52,5.52,0,0,0,2.67-.63,6.28,6.28,0,0,0,2-1.67,7.51,7.51,0,0,0,1.23-2.32,8.45,8.45,0,0,0,.42-2.63,8.34,8.34,0,0,0-.45-2.73,7.25,7.25,0,0,0-1.27-2.3,6.37,6.37,0,0,0-2-1.6,5.55,5.55,0,0,0-2.59-.6,5.61,5.61,0,0,0-2.69.63,6.4,6.4,0,0,0-2,1.64,7.35,7.35,0,0,0-1.25,2.31A8.31,8.31,0,0,0,52.17,157.06Z"/><path class="cls-2" d="M79.14,155a6.91,6.91,0,0,0-3.18.83,4.35,4.35,0,0,0-2,2.2v9H70.9V152.36h2.86v3.28a6.7,6.7,0,0,1,2-2.42,4.79,4.79,0,0,1,2.62-1h.46a1.67,1.67,0,0,1,.32,0Z"/><path class="cls-2" d="M86.44,167.14a6.1,6.1,0,0,1-2.72-.6,6.48,6.48,0,0,1-2.11-1.64,7.71,7.71,0,0,1-1.37-2.38,8.18,8.18,0,0,1-.49-2.83,8.58,8.58,0,0,1,.5-3,7.49,7.49,0,0,1,1.4-2.41,6.67,6.67,0,0,1,2.14-1.62,6.26,6.26,0,0,1,2.76-.6,5.67,5.67,0,0,1,3.09.84,7.11,7.11,0,0,1,2.2,2.18v-2.77h2.72v14.22a6.49,6.49,0,0,1-.59,2.83,6,6,0,0,1-1.64,2.09,7.38,7.38,0,0,1-2.48,1.3,10.23,10.23,0,0,1-3.08.45,8.82,8.82,0,0,1-4-.83,7.65,7.65,0,0,1-2.7-2.31l1.74-1.62a5.43,5.43,0,0,0,2.17,1.79,6.69,6.69,0,0,0,2.84.62,6.36,6.36,0,0,0,1.81-.25,4.2,4.2,0,0,0,1.5-.78,3.8,3.8,0,0,0,1-1.34,4.54,4.54,0,0,0,.38-1.93v-2.24a5.36,5.36,0,0,1-2.16,2.07A6.07,6.07,0,0,1,86.44,167.14Zm1-2.49a3.86,3.86,0,0,0,1.34-.24,4.7,4.7,0,0,0,1.19-.64,4.61,4.61,0,0,0,.94-.92,3.35,3.35,0,0,0,.56-1.11V157.9a5.18,5.18,0,0,0-1.75-2.27,5,5,0,0,0-1.22-.66,3.82,3.82,0,0,0-3.09.2,4.35,4.35,0,0,0-1.36,1.15,5.44,5.44,0,0,0-.87,1.61,5.64,5.64,0,0,0-.31,1.85,5.07,5.07,0,0,0,.35,1.89,4.84,4.84,0,0,0,1,1.54,4.73,4.73,0,0,0,1.44,1A4.15,4.15,0,0,0,87.45,164.65Z"/><path class="cls-2" d="M102.15,167.28a5.46,5.46,0,0,1-2-.35,4.75,4.75,0,0,1-1.57-1,4.5,4.5,0,0,1-1-1.46,4.38,4.38,0,0,1-.38-1.82,3.93,3.93,0,0,1,.45-1.88,4.37,4.37,0,0,1,1.27-1.46,6.17,6.17,0,0,1,2-1,8.78,8.78,0,0,1,2.51-.34,11.5,11.5,0,0,1,2,.18,10.38,10.38,0,0,1,1.82.49v-1a3.4,3.4,0,0,0-.92-2.53,3.64,3.64,0,0,0-2.66-.91,6.42,6.42,0,0,0-2.31.43A11.74,11.74,0,0,0,99,156l-1-2a10.39,10.39,0,0,1,5.88-1.9,6.71,6.71,0,0,1,4.7,1.54,5.71,5.71,0,0,1,1.68,4.42v5.29q0,1,.81,1V167c-.3.06-.56.09-.77.11l-.63,0a2,2,0,0,1-1.39-.45,1.92,1.92,0,0,1-.6-1.15l-.08-.92a6.53,6.53,0,0,1-2.42,2A7.11,7.11,0,0,1,102.15,167.28ZM103,165a5.54,5.54,0,0,0,2.11-.41,3.63,3.63,0,0,0,1.55-1.13,1.42,1.42,0,0,0,.59-1.06v-1.93a9.38,9.38,0,0,0-1.67-.48,9.17,9.17,0,0,0-1.72-.17,4.71,4.71,0,0,0-2.7.71,2.19,2.19,0,0,0-1.05,1.89,2.39,2.39,0,0,0,.81,1.83A3,3,0,0,0,103,165Z"/><path class="cls-2" d="M127.18,167H124.1v-8.2a5.35,5.35,0,0,0-.66-3,2.23,2.23,0,0,0-1.95-.94,3.8,3.8,0,0,0-1.34.25,4.68,4.68,0,0,0-1.26.71,5.56,5.56,0,0,0-1.05,1.09,5,5,0,0,0-.71,1.39V167h-3.08V152.36h2.8v2.94a6,6,0,0,1,2.44-2.34,7.36,7.36,0,0,1,3.53-.85,4.34,4.34,0,0,1,2.16.48,3.58,3.58,0,0,1,1.33,1.3,5.71,5.71,0,0,1,.69,1.9,12.73,12.73,0,0,1,.2,2.28Z"/><path class="cls-2" d="M130.77,149.95v-3.39h3.08v3.39Zm0,17.05V152.36h3.08V167Z"/><path class="cls-2" d="M136.48,165.07l8.79-10.53h-8.48v-2.18h11.73v1.93l-8.74,10.53h8.82V167H136.48Z"/><path class="cls-2" d="M157.59,167.28a7.79,7.79,0,0,1-3.11-.6,7.23,7.23,0,0,1-2.39-1.64,7.39,7.39,0,0,1-1.54-2.41,7.81,7.81,0,0,1-.54-2.91,7.92,7.92,0,0,1,.54-2.93,7.52,7.52,0,0,1,1.54-2.44,7.12,7.12,0,0,1,2.39-1.65,7.86,7.86,0,0,1,3.14-.6,7.54,7.54,0,0,1,3.09.62,7.42,7.42,0,0,1,2.37,1.64,7,7,0,0,1,1.5,2.38,7.92,7.92,0,0,1,.52,2.84q0,.34,0,.63c0,.2,0,.36-.06.49H153.28a5,5,0,0,0,.46,1.76,4.68,4.68,0,0,0,1,1.36,4.31,4.31,0,0,0,3,1.19,4.92,4.92,0,0,0,1.22-.15,4.29,4.29,0,0,0,1.11-.45,4,4,0,0,0,.9-.71,3.35,3.35,0,0,0,.62-.92l2.63.76a6.11,6.11,0,0,1-2.51,2.7A7.78,7.78,0,0,1,157.59,167.28Zm4.45-8.71a4.92,4.92,0,0,0-.46-1.71,4.4,4.4,0,0,0-1-1.33,4.32,4.32,0,0,0-1.37-.85,4.49,4.49,0,0,0-1.65-.31,4.37,4.37,0,0,0-3,1.16,4.2,4.2,0,0,0-1,1.33,5.13,5.13,0,0,0-.45,1.71Z"/><path class="cls-2" d="M175.85,155a6.91,6.91,0,0,0-3.18.83,4.35,4.35,0,0,0-2,2.2v9h-3.08V152.36h2.86v3.28a6.69,6.69,0,0,1,2-2.42,4.79,4.79,0,0,1,2.62-1h.46a1.67,1.67,0,0,1,.32,0Z"/><path class="cls-2" d="M63.34,200.6l-1.82-1.9a9,9,0,0,1-2.7,1.62,8.55,8.55,0,0,1-3.07.56,7.57,7.57,0,0,1-2.66-.45A6.49,6.49,0,0,1,51,199.21a5.38,5.38,0,0,1-1.82-4,5.14,5.14,0,0,1,.29-1.76,6.17,6.17,0,0,1,.8-1.51,7.65,7.65,0,0,1,1.18-1.29,15.62,15.62,0,0,1,1.4-1.09,15.73,15.73,0,0,1-1.08-1.29,8.06,8.06,0,0,1-.7-1.11,4.82,4.82,0,0,1-.39-1,4.08,4.08,0,0,1-.13-1,4.28,4.28,0,0,1,.41-1.86,4.51,4.51,0,0,1,1.11-1.47,5,5,0,0,1,1.67-1,6.32,6.32,0,0,1,2.09-.34,6.63,6.63,0,0,1,1.93.28,5.1,5.1,0,0,1,1.62.81,3.83,3.83,0,0,1,1.11,1.33,4.2,4.2,0,0,1,.11,3.35,5.58,5.58,0,0,1-.8,1.33,8.48,8.48,0,0,1-1.19,1.2,18.31,18.31,0,0,1-1.47,1.11l4.48,4.7a10.15,10.15,0,0,0,.74-2.11,10.59,10.59,0,0,0,.27-2.42h2.52a13.87,13.87,0,0,1-.48,3.51,10.87,10.87,0,0,1-1.26,2.9l4,4.14Zm-7.25-2.16a5.27,5.27,0,0,0,2-.39,6.09,6.09,0,0,0,1.78-1.12l-5.15-5.46a8.67,8.67,0,0,0-1.85,1.71,3.19,3.19,0,0,0-.7,2,2.87,2.87,0,0,0,.31,1.33,3,3,0,0,0,.85,1,4.32,4.32,0,0,0,1.25.66A4.68,4.68,0,0,0,56.09,198.44ZM53.4,185a1.82,1.82,0,0,0,.08.55,2.7,2.7,0,0,0,.29.6,5.52,5.52,0,0,0,.59.76l.94,1a11.73,11.73,0,0,0,2-1.55,2.27,2.27,0,0,0,.74-1.64,1.82,1.82,0,0,0-.63-1.44,2.37,2.37,0,0,0-1.61-.55,2.43,2.43,0,0,0-1.75.66A2.11,2.11,0,0,0,53.4,185Z"/><path class="cls-2" d="M76.64,200.6V180.72H85a5.52,5.52,0,0,1,2.48.56,6.36,6.36,0,0,1,1.95,1.47,6.93,6.93,0,0,1,1.27,2.07,6.36,6.36,0,0,1,.46,2.37,6.87,6.87,0,0,1-.43,2.42,6.78,6.78,0,0,1-1.22,2.07,5.94,5.94,0,0,1-1.89,1.46,5.46,5.46,0,0,1-2.45.55H79.78v6.92Zm3.14-9.69H85a2.63,2.63,0,0,0,1.22-.28,2.8,2.8,0,0,0,.94-.78,3.93,3.93,0,0,0,.62-1.18,4.68,4.68,0,0,0,.22-1.48,4.28,4.28,0,0,0-.25-1.51,3.55,3.55,0,0,0-.7-1.16,3.22,3.22,0,0,0-1-.76,2.8,2.8,0,0,0-1.19-.27h-5Z"/><path class="cls-2" d="M97.45,200.88a5.45,5.45,0,0,1-2-.35,4.74,4.74,0,0,1-1.57-1,4.49,4.49,0,0,1-1-1.46,4.38,4.38,0,0,1-.38-1.82,3.93,3.93,0,0,1,.45-1.88A4.38,4.38,0,0,1,94.21,193a6.16,6.16,0,0,1,2-1,8.78,8.78,0,0,1,2.51-.34,11.5,11.5,0,0,1,2,.18,10.37,10.37,0,0,1,1.82.49v-1a3.39,3.39,0,0,0-.92-2.53,3.63,3.63,0,0,0-2.66-.91,6.42,6.42,0,0,0-2.31.43,11.73,11.73,0,0,0-2.34,1.25l-1-2a10.39,10.39,0,0,1,5.88-1.9,6.7,6.7,0,0,1,4.7,1.54,5.7,5.7,0,0,1,1.68,4.42V197q0,1,.81,1v2.63q-.45.08-.77.11l-.63,0a2,2,0,0,1-1.39-.45,1.92,1.92,0,0,1-.6-1.15l-.08-.92a6.52,6.52,0,0,1-2.42,2A7.11,7.11,0,0,1,97.45,200.88Zm.84-2.27a5.54,5.54,0,0,0,2.11-.41,3.63,3.63,0,0,0,1.55-1.13,1.42,1.42,0,0,0,.59-1.06v-1.93a9.35,9.35,0,0,0-1.67-.48,9.16,9.16,0,0,0-1.72-.17,4.71,4.71,0,0,0-2.7.71A2.19,2.19,0,0,0,95.4,196a2.38,2.38,0,0,0,.81,1.83A3,3,0,0,0,98.29,198.61Z"/><path class="cls-2" d="M117.58,188.62a6.91,6.91,0,0,0-3.18.83,4.35,4.35,0,0,0-2,2.2v9h-3.08V186h2.86v3.28a6.69,6.69,0,0,1,2-2.42,4.79,4.79,0,0,1,2.62-1h.46a1.67,1.67,0,0,1,.32,0Z"/><path class="cls-2" d="M128,199.84a15.53,15.53,0,0,1-1.62.63,6.87,6.87,0,0,1-2.21.35,4.71,4.71,0,0,1-1.37-.2,3.37,3.37,0,0,1-1.13-.59,2.67,2.67,0,0,1-.77-1,3.73,3.73,0,0,1-.28-1.53v-9.16h-1.93V186h1.93v-4.82h3.08V186h3.19v2.38h-3.19v8.18a1.52,1.52,0,0,0,.49,1.13,1.66,1.66,0,0,0,1.08.35,3.43,3.43,0,0,0,1.23-.22q.59-.22.87-.36Z"/><path class="cls-2" d="M143.23,200.6h-3.08v-8.2a5.35,5.35,0,0,0-.66-3,2.23,2.23,0,0,0-1.95-.94,3.8,3.8,0,0,0-1.34.25,4.68,4.68,0,0,0-1.26.71,5.56,5.56,0,0,0-1.05,1.09,5,5,0,0,0-.71,1.39v8.71H130.1V186h2.8v2.94a6,6,0,0,1,2.44-2.34,7.36,7.36,0,0,1,3.53-.85,4.34,4.34,0,0,1,2.16.48,3.58,3.58,0,0,1,1.33,1.3,5.71,5.71,0,0,1,.69,1.9,12.73,12.73,0,0,1,.2,2.28Z"/><path class="cls-2" d="M153.45,200.88a7.79,7.79,0,0,1-3.11-.6,7.23,7.23,0,0,1-2.39-1.64,7.39,7.39,0,0,1-1.54-2.41,7.81,7.81,0,0,1-.54-2.91,7.92,7.92,0,0,1,.54-2.93,7.52,7.52,0,0,1,1.54-2.44,7.12,7.12,0,0,1,2.39-1.65,7.86,7.86,0,0,1,3.14-.6,7.54,7.54,0,0,1,3.09.62,7.42,7.42,0,0,1,2.37,1.64,7,7,0,0,1,1.5,2.38,7.92,7.92,0,0,1,.52,2.84q0,.34,0,.63c0,.2,0,.36-.06.49H149.13a5,5,0,0,0,.46,1.76,4.68,4.68,0,0,0,1,1.36,4.31,4.31,0,0,0,3,1.19,4.92,4.92,0,0,0,1.22-.15,4.29,4.29,0,0,0,1.11-.45,4,4,0,0,0,.9-.71,3.35,3.35,0,0,0,.62-.92l2.63.76a6.11,6.11,0,0,1-2.51,2.7A7.78,7.78,0,0,1,153.45,200.88Zm4.45-8.71a4.92,4.92,0,0,0-.46-1.71,4.4,4.4,0,0,0-1-1.33,4.32,4.32,0,0,0-1.37-.85,4.49,4.49,0,0,0-1.65-.31,4.37,4.37,0,0,0-3,1.16,4.2,4.2,0,0,0-1,1.33,5.13,5.13,0,0,0-.45,1.71Z"/><path class="cls-2" d="M171.7,188.62a6.91,6.91,0,0,0-3.18.83,4.35,4.35,0,0,0-2,2.2v9h-3.08V186h2.86v3.28a6.69,6.69,0,0,1,2-2.42,4.79,4.79,0,0,1,2.62-1h.46a1.66,1.66,0,0,1,.32,0Z"/><path class="cls-2" d="M179.26,200.88a11.24,11.24,0,0,1-3.51-.57,8.92,8.92,0,0,1-3-1.64l1.23-2a11.32,11.32,0,0,0,2.6,1.44,7.34,7.34,0,0,0,2.63.49,3.87,3.87,0,0,0,2.17-.53,1.71,1.71,0,0,0,.8-1.51,1.4,1.4,0,0,0-.9-1.34,18,18,0,0,0-2.8-.92q-1.37-.36-2.35-.7a6,6,0,0,1-1.6-.78,2.74,2.74,0,0,1-.9-1,3.29,3.29,0,0,1-.28-1.43,4.38,4.38,0,0,1,.43-2,4.28,4.28,0,0,1,1.2-1.47,5.39,5.39,0,0,1,1.81-.91,7.83,7.83,0,0,1,2.24-.31,9.19,9.19,0,0,1,3.08.5,8,8,0,0,1,2.55,1.46l-1.32,1.85a6.87,6.87,0,0,0-4.34-1.62,3.7,3.7,0,0,0-2,.49,1.69,1.69,0,0,0-.8,1.55,1.57,1.57,0,0,0,.17.76,1.42,1.42,0,0,0,.55.53,4.49,4.49,0,0,0,1,.41c.4.12.9.26,1.5.41q1.49.36,2.56.73a7,7,0,0,1,1.78.85,3.18,3.18,0,0,1,1,1.15,3.45,3.45,0,0,1,.34,1.58,4,4,0,0,1-1.58,3.32A6.88,6.88,0,0,1,179.26,200.88Z"/><path class="cls-2" d="M83.65,39s2.78,9.94,2.78,18c0,7.73-5.07,14-12.8,14A13.66,13.66,0,0,1,60,57l.11-1.35A51.66,51.66,0,0,0,48,89a30,30,0,1,0,60,0A64.22,64.22,0,0,0,83.65,39Zm-6.72,68.78A11.92,11.92,0,0,1,64.85,96c0-6.08,3.94-10.36,10.54-11.71s13.51-4.54,17.34-9.68a52.36,52.36,0,0,1,2.21,15.16A18,18,0,0,1,76.93,107.78Z"/></svg>