<svg id="Layer_2" data-name="Layer 2" xmlns="http://www.w3.org/2000/svg" viewBox="0 0 240 240"><defs><style>.cls-1{fill:#ffd600;}.cls-2{fill:#17181a;}</style></defs><title>ic_schedule</title><rect class="cls-1" width="240" height="240" rx="60" ry="60"/><path class="cls-2" d="M62,176.8a4.36,4.36,0,0,0-.81-.66,8.15,8.15,0,0,0-1.25-.66,9,9,0,0,0-1.57-.5,7.85,7.85,0,0,0-1.75-.2,4.77,4.77,0,0,0-2.93.73,2.41,2.41,0,0,0-.94,2,2.17,2.17,0,0,0,.29,1.19,2.51,2.51,0,0,0,.91.81,7.13,7.13,0,0,0,1.54.62q.92.27,2.16.57a24.78,24.78,0,0,1,2.73.81,7.76,7.76,0,0,1,2.06,1.09,4.46,4.46,0,0,1,1.3,1.58,5.12,5.12,0,0,1,.46,2.28,5.53,5.53,0,0,1-.57,2.6,4.89,4.89,0,0,1-1.57,1.78,6.94,6.94,0,0,1-2.31,1,11.91,11.91,0,0,1-2.83.32,14.09,14.09,0,0,1-4.38-.69,12.53,12.53,0,0,1-3.82-2l1.43-2.69a6.6,6.6,0,0,0,1,.81,9.76,9.76,0,0,0,1.6.83,13.92,13.92,0,0,0,2,.64,9.08,9.08,0,0,0,2.21.27,5.3,5.3,0,0,0,2.86-.64,2.11,2.11,0,0,0,1-1.9,2,2,0,0,0-.38-1.26,3.25,3.25,0,0,0-1.08-.88,9.41,9.41,0,0,0-1.71-.69q-1-.31-2.29-.64a23.68,23.68,0,0,1-2.59-.83A6.49,6.49,0,0,1,51,181.47,4.11,4.11,0,0,1,49.86,180a4.79,4.79,0,0,1-.38-2,5.76,5.76,0,0,1,.56-2.59,5.52,5.52,0,0,1,1.53-1.9,6.67,6.67,0,0,1,2.28-1.16,10,10,0,0,1,2.86-.39,10.46,10.46,0,0,1,3.72.64,12.36,12.36,0,0,1,3,1.6Z"/><path class="cls-2" d="M66,184.66a8,8,0,0,1,.53-2.91,7.13,7.13,0,0,1,3.92-4,7.86,7.86,0,0,1,3.14-.6,7.39,7.39,0,0,1,3.91,1,6.3,6.3,0,0,1,2.45,2.65l-3,1a3.85,3.85,0,0,0-1.43-1.44,3.91,3.91,0,0,0-2-.52,4.1,4.1,0,0,0-1.72.36,4.16,4.16,0,0,0-1.39,1,4.89,4.89,0,0,0-.92,1.55,5.61,5.61,0,0,0-.34,2,5.45,5.45,0,0,0,.35,2,5.06,5.06,0,0,0,1,1.58,4.38,4.38,0,0,0,1.4,1,3.9,3.9,0,0,0,1.69.38,4.21,4.21,0,0,0,1.12-.15,4,4,0,0,0,1-.43,3.93,3.93,0,0,0,.81-.64,2.44,2.44,0,0,0,.52-.78l3,.9a6,6,0,0,1-2.44,2.7,7.56,7.56,0,0,1-4,1,7.64,7.64,0,0,1-3.11-.62A7.29,7.29,0,0,1,68.09,190a7.56,7.56,0,0,1-1.54-2.42A7.8,7.8,0,0,1,66,184.66Z"/><path class="cls-2" d="M95.74,192H92.66v-8.2a5,5,0,0,0-.71-3,2.4,2.4,0,0,0-2.06-1,3.51,3.51,0,0,0-1.29.25,4.59,4.59,0,0,0-1.22.71,5.43,5.43,0,0,0-1,1.09,4.65,4.65,0,0,0-.67,1.39V192H82.61V171.56h3.08v8.74A6.08,6.08,0,0,1,88,177.94a6.14,6.14,0,0,1,3.15-.84,4.61,4.61,0,0,1,2.25.49,3.94,3.94,0,0,1,1.41,1.3,5.21,5.21,0,0,1,.74,1.89,11.87,11.87,0,0,1,.21,2.28Z"/><path class="cls-2" d="M106,192.28a7.78,7.78,0,0,1-3.11-.6,7.23,7.23,0,0,1-2.39-1.64,7.39,7.39,0,0,1-1.54-2.41,7.79,7.79,0,0,1-.55-2.91,7.9,7.9,0,0,1,.55-2.93,7.51,7.51,0,0,1,1.54-2.44,7.12,7.12,0,0,1,2.39-1.65,7.86,7.86,0,0,1,3.14-.6,7.55,7.55,0,0,1,3.09.62,7.42,7.42,0,0,1,2.37,1.64,7,7,0,0,1,1.5,2.38,7.9,7.9,0,0,1,.52,2.84c0,.22,0,.43,0,.63s0,.36-.06.49H101.65a5,5,0,0,0,.46,1.76,4.65,4.65,0,0,0,1,1.36,4.26,4.26,0,0,0,1.37.88,4.3,4.3,0,0,0,1.61.31,4.9,4.9,0,0,0,1.22-.15,4.28,4.28,0,0,0,1.11-.45,4,4,0,0,0,.9-.71,3.33,3.33,0,0,0,.62-.92l2.63.76a6.11,6.11,0,0,1-2.51,2.7A7.78,7.78,0,0,1,106,192.28Zm4.45-8.71a4.92,4.92,0,0,0-.46-1.71,4.4,4.4,0,0,0-1-1.33,4.31,4.31,0,0,0-1.37-.85,4.49,4.49,0,0,0-1.65-.31,4.38,4.38,0,0,0-3,1.16,4.21,4.21,0,0,0-1,1.33,5.1,5.1,0,0,0-.45,1.71Z"/><path class="cls-2" d="M121.95,192.28a6.28,6.28,0,0,1-2.74-.6A6.87,6.87,0,0,1,117,190a7.59,7.59,0,0,1-1.44-2.42,8.83,8.83,0,0,1,0-5.88,7.68,7.68,0,0,1,1.37-2.39,6.63,6.63,0,0,1,2.07-1.64,6,6,0,0,1,5.73.25,6.22,6.22,0,0,1,2.1,2.17v-8.57h3.08v16.8a1.22,1.22,0,0,0,.18.76.88.88,0,0,0,.66.25V192l-.77.11-.49,0a2.33,2.33,0,0,1-1.51-.48,1.68,1.68,0,0,1-.64-1.23l-.06-1.09a5.84,5.84,0,0,1-2.21,2.16A6.25,6.25,0,0,1,121.95,192.28Zm.76-2.63a4.23,4.23,0,0,0,1.34-.22,4.78,4.78,0,0,0,1.23-.62,4.27,4.27,0,0,0,1-.92,3.3,3.3,0,0,0,.57-1.15V182.9a4.61,4.61,0,0,0-.71-1.29,5.11,5.11,0,0,0-1.05-1,4.83,4.83,0,0,0-1.25-.64,4.1,4.1,0,0,0-1.33-.22,3.47,3.47,0,0,0-1.69.42,4.35,4.35,0,0,0-1.33,1.12,5.51,5.51,0,0,0-.88,1.6,5.42,5.42,0,0,0-.32,1.85,5.19,5.19,0,0,0,.35,1.9,5,5,0,0,0,1,1.57,4.75,4.75,0,0,0,1.41,1.06A3.85,3.85,0,0,0,122.7,189.65Z"/><path class="cls-2" d="M138.33,192.28a4.15,4.15,0,0,1-3.47-1.5,7.14,7.14,0,0,1-1.18-4.47v-9h3.08v8.34q0,3.95,2.8,3.95a4.31,4.31,0,0,0,2.49-.81,5.21,5.21,0,0,0,1.82-2.35v-9.13H147v11a1.22,1.22,0,0,0,.18.76.88.88,0,0,0,.66.25V192c-.32.06-.58.09-.78.11l-.59,0a2.24,2.24,0,0,1-1.43-.46,1.52,1.52,0,0,1-.62-1.19l-.06-1.46a6.53,6.53,0,0,1-2.55,2.42A7.29,7.29,0,0,1,138.33,192.28Z"/><path class="cls-2" d="M150.9,171.56H154v16.21a1.83,1.83,0,0,0,.42,1.27,1.51,1.51,0,0,0,1.18.46,2.76,2.76,0,0,0,.71-.11q.4-.11.77-.25l.45,2.41a7.1,7.1,0,0,1-1.6.49,8.65,8.65,0,0,1-1.65.18,3.39,3.39,0,0,1-2.48-.87,3.3,3.3,0,0,1-.88-2.46Z"/><path class="cls-2" d="M165.93,192.28a7.79,7.79,0,0,1-3.11-.6,7.24,7.24,0,0,1-2.39-1.64,7.37,7.37,0,0,1-1.54-2.41,7.79,7.79,0,0,1-.55-2.91,7.91,7.91,0,0,1,.55-2.93,7.5,7.5,0,0,1,1.54-2.44,7.13,7.13,0,0,1,2.39-1.65,7.86,7.86,0,0,1,3.14-.6,7.55,7.55,0,0,1,3.09.62,7.4,7.4,0,0,1,2.37,1.64,7,7,0,0,1,1.5,2.38,7.9,7.9,0,0,1,.52,2.84q0,.34,0,.63c0,.2,0,.36-.06.49H161.62a5,5,0,0,0,.46,1.76,4.63,4.63,0,0,0,1,1.36,4.24,4.24,0,0,0,1.37.88A4.31,4.31,0,0,0,166,190a4.89,4.89,0,0,0,1.22-.15,4.27,4.27,0,0,0,1.11-.45,4,4,0,0,0,.9-.71,3.35,3.35,0,0,0,.62-.92l2.63.76a6.1,6.1,0,0,1-2.51,2.7A7.77,7.77,0,0,1,165.93,192.28Zm4.45-8.71a4.94,4.94,0,0,0-.46-1.71,4.41,4.41,0,0,0-1-1.33,4.32,4.32,0,0,0-1.37-.85,4.48,4.48,0,0,0-1.65-.31,4.38,4.38,0,0,0-3,1.16,4.23,4.23,0,0,0-1,1.33,5.1,5.1,0,0,0-.45,1.71Z"/><path class="cls-2" d="M104,87H64v8h40Zm8-28h-4V51h-8v8H68V51H60v8H56a8,8,0,0,0-8,8l0,56a8,8,0,0,0,8,8h56a8,8,0,0,0,8-8V67A8,8,0,0,0,112,59Zm0,64H56V79h56ZM92,103H64v8H92Z"/></svg>