<svg id="Layer_4" data-name="Layer 4" xmlns="http://www.w3.org/2000/svg" viewBox="0 0 240 240"><defs><style>.cls-1{fill:#ffd600;}.cls-2{fill:#17181a;}</style></defs><title>ic_venue</title><rect class="cls-1" width="240" height="240" rx="60" ry="60"/><path class="cls-2" d="M64.83,174.89H58.22V192H55.06V174.89H48.42v-2.77H64.83Z"/><path class="cls-2" d="M80.23,192H77.15v-8.2a5,5,0,0,0-.71-3,2.4,2.4,0,0,0-2.06-1,3.51,3.51,0,0,0-1.29.25,4.6,4.6,0,0,0-1.22.71,5.41,5.41,0,0,0-1,1.09,4.64,4.64,0,0,0-.67,1.39V192H67.1V171.56h3.08v8.74a6.07,6.07,0,0,1,2.28-2.35,6.14,6.14,0,0,1,3.15-.84,4.61,4.61,0,0,1,2.25.49,4,4,0,0,1,1.41,1.3,5.24,5.24,0,0,1,.74,1.89,11.91,11.91,0,0,1,.21,2.28Z"/><path class="cls-2" d="M90.45,192.28a7.79,7.79,0,0,1-3.11-.6A7.23,7.23,0,0,1,84.95,190a7.38,7.38,0,0,1-1.54-2.41,7.8,7.8,0,0,1-.55-2.91,7.91,7.91,0,0,1,.55-2.93,7.51,7.51,0,0,1,1.54-2.44,7.13,7.13,0,0,1,2.39-1.65,7.86,7.86,0,0,1,3.14-.6,7.54,7.54,0,0,1,3.09.62,7.41,7.41,0,0,1,2.37,1.64,7,7,0,0,1,1.5,2.38,7.91,7.91,0,0,1,.52,2.84q0,.34,0,.63c0,.2,0,.36-.06.49H86.14a5,5,0,0,0,.46,1.76,4.66,4.66,0,0,0,1,1.36,4.26,4.26,0,0,0,1.37.88,4.3,4.3,0,0,0,1.61.31,4.9,4.9,0,0,0,1.22-.15,4.28,4.28,0,0,0,1.11-.45,4,4,0,0,0,.9-.71,3.35,3.35,0,0,0,.62-.92l2.63.76a6.1,6.1,0,0,1-2.51,2.7A7.77,7.77,0,0,1,90.45,192.28Zm4.45-8.71a4.93,4.93,0,0,0-.46-1.71,4.4,4.4,0,0,0-1-1.33,4.32,4.32,0,0,0-1.37-.85,4.49,4.49,0,0,0-1.65-.31,4.38,4.38,0,0,0-3,1.16,4.21,4.21,0,0,0-1,1.33,5.11,5.11,0,0,0-.45,1.71Z"/><path class="cls-2" d="M108.09,172.12l6,15.93,6-15.93h3.33l-8,19.88h-2.69l-8-19.88Z"/><path class="cls-2" d="M130.26,192.28a7.79,7.79,0,0,1-3.11-.6,7.23,7.23,0,0,1-2.39-1.64,7.38,7.38,0,0,1-1.54-2.41,7.8,7.8,0,0,1-.55-2.91,7.91,7.91,0,0,1,.55-2.93,7.51,7.51,0,0,1,1.54-2.44,7.13,7.13,0,0,1,2.39-1.65,7.86,7.86,0,0,1,3.14-.6,7.54,7.54,0,0,1,3.09.62,7.41,7.41,0,0,1,2.37,1.64,7,7,0,0,1,1.5,2.38,7.91,7.91,0,0,1,.52,2.84q0,.34,0,.63c0,.2,0,.36-.06.49H126a5,5,0,0,0,.46,1.76,4.66,4.66,0,0,0,1,1.36,4.26,4.26,0,0,0,1.37.88,4.3,4.3,0,0,0,1.61.31,4.9,4.9,0,0,0,1.22-.15,4.28,4.28,0,0,0,1.11-.45,4,4,0,0,0,.9-.71,3.35,3.35,0,0,0,.62-.92l2.63.76a6.1,6.1,0,0,1-2.51,2.7A7.77,7.77,0,0,1,130.26,192.28Zm4.45-8.71a4.93,4.93,0,0,0-.46-1.71,4.4,4.4,0,0,0-1-1.33,4.32,4.32,0,0,0-1.37-.85,4.49,4.49,0,0,0-1.65-.31,4.38,4.38,0,0,0-3,1.16,4.21,4.21,0,0,0-1,1.33,5.11,5.11,0,0,0-.45,1.71Z"/><path class="cls-2" d="M153.42,192h-3.08v-8.2a5.35,5.35,0,0,0-.66-3,2.23,2.23,0,0,0-1.95-.94,3.8,3.8,0,0,0-1.34.25,4.69,4.69,0,0,0-1.26.71,5.55,5.55,0,0,0-1,1.09,5,5,0,0,0-.71,1.39V192h-3.08V177.36h2.8v2.94a6,6,0,0,1,2.44-2.34,7.36,7.36,0,0,1,3.53-.85,4.34,4.34,0,0,1,2.16.48,3.57,3.57,0,0,1,1.33,1.3,5.71,5.71,0,0,1,.69,1.9,12.78,12.78,0,0,1,.2,2.28Z"/><path class="cls-2" d="M161.51,192.28a4.15,4.15,0,0,1-3.47-1.5,7.15,7.15,0,0,1-1.18-4.47v-9h3.08v8.34q0,3.95,2.8,3.95a4.31,4.31,0,0,0,2.49-.81,5.21,5.21,0,0,0,1.82-2.35v-9.13h3.08v11a1.21,1.21,0,0,0,.18.76.88.88,0,0,0,.66.25V192q-.48.08-.78.11l-.59,0a2.24,2.24,0,0,1-1.43-.46,1.52,1.52,0,0,1-.62-1.19L167.5,189a6.54,6.54,0,0,1-2.55,2.42A7.29,7.29,0,0,1,161.51,192.28Z"/><path class="cls-2" d="M180.69,192.28a7.79,7.79,0,0,1-3.11-.6,7.23,7.23,0,0,1-2.39-1.64,7.38,7.38,0,0,1-1.54-2.41,7.8,7.8,0,0,1-.55-2.91,7.91,7.91,0,0,1,.55-2.93,7.51,7.51,0,0,1,1.54-2.44,7.13,7.13,0,0,1,2.39-1.65,7.86,7.86,0,0,1,3.14-.6,7.54,7.54,0,0,1,3.09.62,7.41,7.41,0,0,1,2.37,1.64,7,7,0,0,1,1.5,2.38,7.91,7.91,0,0,1,.52,2.84q0,.34,0,.63c0,.2,0,.36-.06.49H176.38a5,5,0,0,0,.46,1.76,4.66,4.66,0,0,0,1,1.36,4.26,4.26,0,0,0,1.37.88,4.3,4.3,0,0,0,1.61.31,4.9,4.9,0,0,0,1.22-.15,4.28,4.28,0,0,0,1.11-.45,4,4,0,0,0,.9-.71,3.35,3.35,0,0,0,.62-.92l2.63.76a6.1,6.1,0,0,1-2.51,2.7A7.77,7.77,0,0,1,180.69,192.28Zm4.45-8.71a4.93,4.93,0,0,0-.46-1.71,4.4,4.4,0,0,0-1-1.33,4.32,4.32,0,0,0-1.37-.85,4.49,4.49,0,0,0-1.65-.31,4.38,4.38,0,0,0-3,1.16,4.21,4.21,0,0,0-1,1.33,5.11,5.11,0,0,0-.45,1.71Z"/><path class="cls-2" d="M78.8,48A30.78,30.78,0,0,0,48,78.8C48,101.9,78.8,136,78.8,136s30.8-34.1,30.8-57.2A30.78,30.78,0,0,0,78.8,48Zm0,41.8a11,11,0,1,1,11-11A11,11,0,0,1,78.8,89.8Z"/></svg>