<?xml version="1.0" encoding="utf-8"?>
<!-- Generator: Adobe Illustrator 19.2.1, SVG Export Plug-In . SVG Version: 6.00 Build 0)  -->
<svg version="1.1" id="Layer_1" xmlns="http://www.w3.org/2000/svg" xmlns:xlink="http://www.w3.org/1999/xlink" x="0px" y="0px"
	 viewBox="0 0 100 100" style="enable-background:new 0 0 100 100;" xml:space="preserve">
<style type="text/css">
	.st0{display:none;fill:#243B4B;}
	.st1{fill:#243B4B;}
	.st2{fill:#010101;}
</style>
<path class="st0" d="M76.2,32.6c0.1-0.1,0.1-0.2,0.2-0.2c0,0,0,0-0.2,0.3c0.1,0.1,0.2,0.3,0.2,0.4c2.7,0.5,4.8,1.2,4.8,1.7
	c0,0.3-1.2,1-3.1,1.8c0.8,1.9,1.4,3.9,1.9,6.1c1.4,6.7,0.7,13-1.5,17.5c-3.7,12.3-15.2,21.3-28.7,21.3c-12.7,0-23.6-7.9-27.9-19.1
	c5,3.7,11.1,5.9,17.8,5.9c3.7,0,7.3-0.7,10.5-1.9c-3.6,0.2-7.3-0.2-10.8-1.6c-12-4.6-14.3-18.9-14.3-18.9c-0.9-5.8,0.4-6.1,2.9-0.9
	c0,0,2.9,6.2,11.5,9.5c0.2,0.1,0.5,0.1,0.7,0.2c-0.1-0.1-0.3-0.1-0.4-0.2C28.4,48.2,28,33.7,28,33.7c-0.2-5.8,1.2-6,3-0.5
	c0,0,2.1,6.6,10.2,10.9c4.1,2.2,8.5,3.1,12.8,3c-2-11.2,1.8-21.2,8.7-22.7c3.1-0.7,6.4,0.6,9.2,3.1c0.8-0.1,1.7-0.1,2.7,0
	c3.6,0.5,6.6,1.4,6.6,2c0,0.5-2.4,1.6-5.4,2.6C76,32.3,76.1,32.4,76.2,32.6z M50.7,0.1c-27.6,0-50,22.4-50,50s22.4,50,50,50
	s50-22.4,50-50S78.3,0.1,50.7,0.1z"/>
<g>
	<path class="st1" d="M69.6,35.4c-2.8,0-4.9-2.2-4.9-4.9c0-2.8,2.2-4.9,4.9-4.9c2.7,0,4.9,2.2,4.9,4.9
		C74.6,33.2,72.4,35.4,69.6,35.4z M50,69.2c-10.6,0-19.2-8.6-19.2-19.2S39.4,30.8,50,30.8S69.2,39.4,69.2,50S60.6,69.2,50,69.2z
		 M66.4,19H33.6c-8,0-14.6,6.6-14.6,14.6v32.7c0,8,6.6,14.6,14.6,14.6h32.7c8,0,14.6-6.6,14.6-14.6V33.6C81,25.6,74.4,19,66.4,19z"
		/>
	<path class="st1" d="M50,37c-7.2,0-13,5.9-13,13c0,7.2,5.9,13,13,13c7.2,0,13-5.9,13-13C63,42.8,57.2,37,50,37z"/>
	<path class="st1" d="M87,66.4C87,77.7,77.7,87,66.4,87H33.6C22.3,87,13,77.7,13,66.4V33.6C13,22.3,22.3,13,33.6,13h32.7
		C77.7,13,87,22.3,87,33.6V66.4z M73.1,0H26.9C12,0,0,12,0,27v46.1C0,88,12,100,26.9,100h46.1C88,100,100,88,100,73.1V27
		C100,12,88,0,73.1,0z"/>
</g>
<path class="st2" d="M141.1,62.7V67h5.9v3.6h-5.9v14.5h-4.4V70.6h-5.1V67h5.1v-5c0-2.9,2.2-5.2,5-5.2h5.2v3.9h-4
	C142,60.6,141.1,61.6,141.1,62.7z M154,46.3h-30c-5.1,0-9.4,4.2-9.4,9.4v30c0,5.1,4.2,9.4,9.4,9.4h30c5.1,0,9.4-4.2,9.4-9.4v-30
	C163.3,50.6,159.2,46.3,154,46.3z"/>
</svg>
