<svg id="Layer_1" data-name="Layer 1" xmlns="http://www.w3.org/2000/svg" viewBox="0 0 258.6 258.49"><defs><style>.cls-1,.cls-3{fill:#231f20;}.cls-1{fill-rule:evenodd;}.cls-2{fill:#fff;}</style></defs><title>logo_usf_circle</title><polygon class="cls-1" points="129.3 12.72 136.69 0 142.57 13.48 151.36 1.68 155.67 15.74 165.74 5.03 168.41 19.49 179.65 9.99 180.66 24.67 192.91 16.5 192.23 31.2 205.33 24.49 202.99 39.02 216.76 33.84 212.77 48 227.05 44.43 221.49 58.05 236.08 56.13 228.99 69.02 243.7 68.77 235.19 80.78 249.84 82.21 240.02 93.16 254.41 96.25 243.39 106.01 257.33 110.73 245.28 119.18 258.6 125.44 245.66 132.46 258.17 140.2 244.53 145.7 256.07 154.82 241.89 158.74 252.32 169.11 237.78 171.37 246.96 182.87 232.26 183.46 240.07 195.93 225.4 194.84 231.73 208.12 217.28 205.37 222.05 219.28 208.02 214.91 211.17 229.27 197.72 223.33 199.23 237.95 186.54 230.5 186.37 245.21 174.62 236.37 172.76 250.97 162.1 240.84 158.6 255.13 149.14 243.84 144.04 257.64 135.95 245.36 129.3 258.49 122.65 245.36 114.56 257.64 109.45 243.84 100 255.13 96.5 240.84 85.82 250.97 83.97 236.37 72.23 245.21 72.05 230.5 59.37 237.95 60.87 223.33 47.42 229.27 50.58 214.91 36.53 219.28 41.32 205.37 26.87 208.12 33.2 194.84 18.52 195.93 26.34 183.46 11.64 182.87 20.83 171.37 6.27 169.11 16.71 158.74 2.52 154.82 14.07 145.7 0.43 140.2 12.93 132.46 0 125.44 13.31 119.18 1.26 110.73 15.2 106.01 4.2 96.25 18.57 93.16 8.76 82.21 23.4 80.78 14.89 68.77 29.61 69.02 22.53 56.13 37.11 58.05 31.53 44.43 45.81 48 41.83 33.84 55.61 39.02 53.27 24.49 66.36 31.2 65.69 16.5 77.93 24.67 78.95 9.99 90.18 19.49 92.86 5.03 102.93 15.74 107.23 1.68 116.03 13.48 121.91 0 129.3 12.72"/><path class="cls-2" d="M10.16,129.24A119.13,119.13,0,1,0,129.3,10.11,119.14,119.14,0,0,0,10.16,129.24"/><path class="cls-3" d="M44.17,214.37a120.38,120.38,0,1,1,85.13,35.26,120,120,0,0,1-85.13-35.26M11.42,129.24A117.89,117.89,0,1,0,45.95,45.89,117.51,117.51,0,0,0,11.42,129.24Z"/><polygon class="cls-1" points="129.3 22.09 136.09 10.39 141.5 22.79 149.58 11.93 153.54 24.87 162.81 15.01 165.27 28.32 175.6 19.58 176.53 33.08 187.79 25.56 187.18 39.08 199.22 32.91 197.06 46.27 209.72 41.51 206.06 54.53 219.19 51.25 214.08 63.78 227.49 62 220.97 73.86 234.49 73.63 226.68 84.68 240.14 85.99 231.11 96.06 244.34 98.9 234.22 107.89 247.03 112.22 235.96 119.98 248.2 125.75 236.3 132.21 247.81 139.32 235.27 144.38 245.88 152.77 232.84 156.36 242.43 165.9 229.06 167.98 237.5 178.56 223.98 179.11 231.16 190.57 217.67 189.57 223.49 201.78 210.21 199.25 214.59 212.04 201.69 208.01 204.59 221.23 192.22 215.76 193.6 229.21 181.94 222.36 181.78 235.89 170.97 227.76 169.27 241.18 159.46 231.86 156.25 245 147.55 234.63 142.85 247.32 135.41 236.02 129.3 248.1 123.18 236.02 115.74 247.32 111.04 234.63 102.35 245 99.14 231.86 89.31 241.18 87.62 227.76 76.81 235.89 76.65 222.36 64.99 229.21 66.37 215.76 54 221.23 56.91 208.01 44 212.04 48.38 199.25 35.1 201.78 40.93 189.57 27.43 190.57 34.62 179.11 21.1 178.56 29.54 167.98 16.16 165.9 25.76 156.36 12.71 152.77 23.33 144.38 10.79 139.32 22.28 132.21 10.4 125.75 22.64 119.98 11.56 112.22 24.37 107.89 14.26 98.9 27.48 96.06 18.45 85.99 31.92 84.68 24.09 73.63 37.61 73.86 31.11 62 44.52 63.78 39.4 51.25 52.52 54.53 48.87 41.51 61.53 46.27 59.38 32.91 71.43 39.08 70.8 25.56 82.07 33.08 83 19.58 93.32 28.32 95.79 15.01 105.05 24.87 109.01 11.93 117.1 22.79 122.5 10.39 129.3 22.09"/><path class="cls-3" d="M16.94,129.24A112.36,112.36,0,1,0,129.3,16.88,112.37,112.37,0,0,0,16.94,129.24"/><polygon class="cls-2" points="72.54 184.05 72.8 184.35 72.8 186.87 72.54 187.15 72.54 187.16 65.64 187.16 65.35 186.87 65.35 184.35 65.64 184.05 72.54 184.05"/><polygon class="cls-2" points="92.35 176.82 92.35 179.35 92.18 179.6 92.18 179.65 87.14 179.65 87.14 182.38 90.9 182.38 91.2 182.67 91.2 185.2 91.05 185.45 91.05 185.5 87.14 185.5 87.14 191.04 86.85 191.34 84.33 191.34 84.04 191.04 84.04 176.82 84.33 176.52 92.05 176.52 92.35 176.82"/><path class="cls-2" d="M112.27,189.37a.72.72,0,0,1-.21.55l-1.21,1.18a.73.73,0,0,1-.53.23h-5.48a.76.76,0,0,1-.56-.23l-1.18-1.18a.8.8,0,0,1-.24-.55V178.5a.78.78,0,0,1,.24-.55l1.18-1.19a.68.68,0,0,1,.56-.24h5.46a.68.68,0,0,1,.55.24l1.21,1.19a.71.71,0,0,1,.21.55Zm-5.74-9.73-.13.06L106,180l-.06.18v7.56l.06.14.3.3h2.46l.3-.3.06-.14v-7.56l-.06-.18-.35-.34-.15-.06Z"/><path class="cls-2" d="M132,183.92a.69.69,0,0,1-.21.55l-1.21,1.21-.06,0,2.15,5.32-.29.3h-2.84l-.38-.3-2.09-5.15h-1V191l-.29.3h-2.52L123,191V176.82l.29-.29h6.73a.67.67,0,0,1,.55.21l1.21,1.21a.78.78,0,0,1,.21.6Zm-5.9-1.14h2.23l.15-.06.33-.34.07-.17v-2l-.07-.18-.33-.34-.18-.06h-2.21Z"/><path class="cls-2" d="M152.32,189.37a.69.69,0,0,1-.21.55l-1.18,1.18a.76.76,0,0,1-.55.23l-5.49,0a.7.7,0,0,1-.55-.21l-1.19-1.18a.78.78,0,0,1-.23-.55h0l0-.05v-12.5l.3-.29h2.53l.29.29v11l.07.14.29.3h2.45l.3-.3.09-.14v-11l.29-.29H152l.29.29Z"/><polygon class="cls-2" points="174.93 191.04 174.62 191.34 172.13 191.34 171.81 191.04 171.72 185.68 170.09 191.09 169.71 191.37 168.01 191.37 167.62 191.09 166.01 185.68 165.9 191.04 165.6 191.34 163.08 191.34 162.78 191.04 163.35 176.89 163.35 176.82 163.48 176.63 163.52 176.61 163.59 176.6 166.28 176.6 166.6 176.87 168.51 185.04 168.74 186.83 168.9 185.04 171.13 176.87 171.44 176.6 174.15 176.6 174.21 176.61 174.23 176.63 174.35 176.82 174.35 176.87 174.37 176.89 174.93 191.04"/><polygon class="cls-2" points="193 184.05 193.25 184.35 193.25 186.87 193 187.15 193 187.16 186.1 187.16 185.8 186.87 185.8 184.35 186.1 184.05 193 184.05"/><path class="cls-2" d="M101.36,142.76a9.37,9.37,0,1,0,2.74,6.62,9.34,9.34,0,0,0-2.74-6.62m-6.62-5.54a12.15,12.15,0,1,1-8.6,3.56A12.13,12.13,0,0,1,94.74,137.21Z"/><path class="cls-2" d="M67.25,77.18v32.57h0a5.95,5.95,0,0,0,11.9,0h0V88.11h2.79v21.64h0a8.74,8.74,0,1,1-17.49,0h0V77.18Z"/><path class="cls-2" d="M65.52,111.87a9.89,9.89,0,0,0-9.88,9.89c0,6.47,5.07,8.7,10.23,11,6.22,2.73,12.54,5.51,12.54,14.64a14,14,0,0,1-14,14,13.74,13.74,0,0,1-9.82-4.09,14,14,0,0,1-4.05-9.91h2.8a11.24,11.24,0,0,0,3.24,7.95,11,11,0,0,0,7.84,3.26,11.21,11.21,0,0,0,11.21-11.2c0-7.31-5.47-9.72-10.85-12.08-6-2.64-11.92-5.24-11.92-13.53a12.67,12.67,0,0,1,12.68-12.68Z"/><path class="cls-2" d="M109,95.34H96l.09,43.47H93.28l-.13-59.56V77.86H109a8.75,8.75,0,1,1,0,17.49m-13-2.8h13a5.95,5.95,0,1,0,0-11.89h-13Z"/><path class="cls-2" d="M131.31,161.31H125.2a12.27,12.27,0,1,1,0-24.54h6.15v2.8H125.2a9.47,9.47,0,1,0,0,18.94h6.11Z"/><polygon class="cls-2" points="143.43 119.22 143.36 161.25 140.58 161.25 140.64 119.22 143.43 119.22"/><path class="cls-2" d="M154.71,161.4c0-6.66,0-13.44,0-20.26,0-18.46-.08-37.24-.08-51.39a12.27,12.27,0,1,1,24.54,0c0,5.86,0,15.55,0,26.79v1.63l.07,43.24h-2.78l-.07-43.24v-1.63c0-15,0-25.53,0-26.79a9.47,9.47,0,0,0-18.94,0c0,19.34,0,35.53.06,51.39,0,6.83,0,13.6,0,20.26Z"/><rect class="cls-2" x="112.41" y="92.03" width="2.79" height="48.42" transform="translate(-37.5 56.48) rotate(-24.05)"/><polygon class="cls-2" points="207.19 161.21 188.82 161.21 187.42 161.21 187.42 159.8 187.42 97 187.42 93.07 189.91 96.13 205.27 115.04 205.27 93.05 208.07 93.05 208.07 118.97 208.07 122.91 205.58 119.85 190.22 100.94 190.22 158.41 207.19 158.41 207.19 161.21"/><path class="cls-2" d="M140.09,82.53a9.18,9.18,0,0,1-.84.74,15.67,15.67,0,0,1-5.49,30.34h-10.1l0-1.38L123,69l0-1.42h11a8.75,8.75,0,0,1,6.19,14.93m-5.91-.24a5.95,5.95,0,0,0-.27-11.89h-8.12L126,82.28h8.22Zm-.27,2.81H126l.4,25.72h7.36a12.86,12.86,0,0,0,.43-25.72Z"/><rect class="cls-2" x="155.89" y="117.06" width="21.91" height="2.8"/></svg>