<?xml version="1.0" encoding="utf-8"?>
<!-- Generator: Adobe Illustrator 19.0.0, SVG Export Plug-In . SVG Version: 6.00 Build 0)  -->
<svg version="1.1" id="Layer_1" xmlns="http://www.w3.org/2000/svg" xmlns:xlink="http://www.w3.org/1999/xlink" x="0px" y="0px"
	 viewBox="0 0 1920 720" style="enable-background:new 0 0 1920 720;" xml:space="preserve">
<style type="text/css">
	.st0{fill:#FED600;}
</style>
<circle id="XMLID_1_" class="st0" cx="536" cy="200" r="56"/>
<circle id="XMLID_2_" class="st0" cx="696" cy="200" r="56"/>
<circle id="XMLID_3_" class="st0" cx="856" cy="200" r="56"/>
<circle id="XMLID_6_" class="st0" cx="536" cy="360" r="56"/>
<circle id="XMLID_5_" class="st0" cx="696" cy="360" r="56"/>
<circle id="XMLID_4_" class="st0" cx="856" cy="360" r="56"/>
<circle id="XMLID_9_" class="st0" cx="536" cy="520" r="56"/>
<circle id="XMLID_8_" class="st0" cx="696" cy="520" r="56"/>
<circle id="XMLID_7_" class="st0" cx="856" cy="520" r="56"/>
<g id="XMLID_10_">
	<g id="XMLID_92_">
		<path id="XMLID_93_" d="M1031.2,241.7c-5.3,0-9.9-0.8-13.7-2.3c-3.8-1.5-7-3.7-9.5-6.4c-2.5-2.8-4.4-6-5.5-9.7
			c-1.2-3.7-1.8-7.8-1.8-12.3v-48.5h14.2v47.2c0,3.5,0.4,6.5,1.2,9c0.8,2.5,1.9,4.5,3.4,6.1c1.5,1.6,3.2,2.7,5.2,3.5
			c2,0.7,4.2,1.1,6.7,1.1c2.5,0,4.7-0.4,6.7-1.1c2-0.7,3.8-1.9,5.2-3.5c1.5-1.6,2.6-3.6,3.4-6.1c0.8-2.5,1.2-5.5,1.2-9v-47.2h14.2
			v48.5c0,4.5-0.6,8.6-1.8,12.3c-1.2,3.7-3.1,7-5.6,9.7c-2.5,2.8-5.7,4.9-9.6,6.4C1041.1,240.9,1036.5,241.7,1031.2,241.7z"/>
		<path id="XMLID_95_" d="M1112.7,193.6c-1.1-0.4-2.7-0.8-4.6-1.2c-2-0.4-4.3-0.6-6.9-0.6c-1.5,0-3.1,0.2-4.8,0.4
			c-1.7,0.3-2.9,0.6-3.5,0.8V240h-13.6v-55.8c2.6-1,5.9-1.9,9.8-2.7c3.9-0.9,8.3-1.3,13-1.3c0.9,0,1.9,0.1,3.1,0.2
			c1.2,0.1,2.4,0.3,3.6,0.4c1.2,0.2,2.4,0.4,3.5,0.7c1.1,0.3,2,0.5,2.7,0.7L1112.7,193.6z"/>
		<path id="XMLID_97_" d="M1177.2,210.8c0,4.7-0.7,8.9-2.1,12.7c-1.4,3.8-3.4,7-5.9,9.7s-5.7,4.7-9.4,6.2c-3.7,1.4-7.8,2.1-12.4,2.1
			c-4.5,0-8.8-0.3-12.8-1c-4.1-0.7-7.4-1.4-10.1-2.2v-82.9l13.6-2.2v30.4c1.6-0.8,3.5-1.6,5.8-2.2c2.3-0.7,4.8-1,7.6-1
			c4.1,0,7.8,0.7,11,2.2s6,3.5,8.1,6.2c2.2,2.7,3.8,5.9,5,9.7C1176.7,202.1,1177.2,206.2,1177.2,210.8z M1163.4,210.5
			c0-5.7-1.1-10.3-3.4-13.7c-2.3-3.4-5.9-5-10.8-5c-2.2,0-4.4,0.3-6.3,1c-2,0.7-3.6,1.4-4.8,2.2v33.7c1,0.2,2.2,0.4,3.8,0.6
			c1.5,0.2,3.4,0.3,5.5,0.3c5,0,8.9-1.7,11.8-5.1C1161.9,221.2,1163.4,216.5,1163.4,210.5z"/>
		<path id="XMLID_100_" d="M1210.7,180c4.5,0,8.2,0.6,11.3,1.7c3.1,1.1,5.5,2.7,7.3,4.7c1.8,2,3.1,4.5,3.9,7.3
			c0.8,2.9,1.2,6,1.2,9.5v35.5c-2.1,0.4-5.2,1-9.5,1.6c-4.2,0.6-9,1-14.3,1c-3.5,0-6.7-0.3-9.6-1c-2.9-0.7-5.4-1.8-7.4-3.2
			c-2.1-1.5-3.7-3.4-4.8-5.8c-1.2-2.4-1.7-5.3-1.7-8.8c0-3.4,0.7-6.2,2-8.5c1.3-2.3,3.1-4.2,5.3-5.7c2.2-1.5,4.8-2.5,7.8-3.1
			c2.9-0.6,6-1,9.2-1c1.5,0,3.1,0.1,4.7,0.3c1.6,0.2,3.4,0.5,5.3,1V203c0-1.6-0.2-3.1-0.6-4.5c-0.4-1.4-1-2.7-2-3.8
			c-0.9-1.1-2.2-1.9-3.7-2.5c-1.5-0.6-3.5-0.9-5.8-0.9c-3.1,0-6,0.2-8.6,0.7c-2.6,0.4-4.7,1-6.4,1.6l-1.7-11
			c1.7-0.6,4.2-1.2,7.5-1.8C1203.5,180.3,1207,180,1210.7,180z M1211.9,230.5c4.2,0,7.4-0.2,9.5-0.7v-15c-0.7-0.2-1.8-0.4-3.2-0.7
			c-1.4-0.2-3-0.3-4.7-0.3c-1.5,0-3,0.1-4.5,0.3c-1.5,0.2-2.9,0.6-4.1,1.2c-1.2,0.6-2.2,1.4-3,2.5c-0.7,1.1-1.1,2.4-1.1,4.1
			c0,3.2,1,5.4,3,6.7C1205.7,229.9,1208.4,230.5,1211.9,230.5z"/>
		<path id="XMLID_103_" d="M1251.1,183.3c2.6-0.7,6-1.5,10.2-2.1c4.2-0.7,8.8-1,13.9-1c4.8,0,8.8,0.7,12,2c3.2,1.3,5.8,3.1,7.7,5.5
			c1.9,2.4,3.2,5.2,4,8.5c0.8,3.3,1.2,7,1.2,10.9V240h-13.6v-30.8c0-3.1-0.2-5.8-0.6-8c-0.4-2.2-1.1-4-2-5.4c-0.9-1.4-2.2-2.4-3.8-3
			c-1.6-0.6-3.6-1-5.9-1c-1.7,0-3.5,0.1-5.4,0.3c-1.9,0.2-3.2,0.4-4.1,0.6V240h-13.6V183.3z"/>
	</g>
	<g id="XMLID_65_">
		<path id="XMLID_66_" d="M1035.8,401.7c-5.8,0-11.1-0.9-15.7-2.7c-4.6-1.8-8.6-4.4-11.8-7.9c-3.2-3.5-5.7-7.7-7.4-12.7
			c-1.7-5-2.6-10.8-2.6-17.2c0-6.5,1-12.2,3-17.2c2-5,4.7-9.2,8.1-12.7c3.4-3.5,7.5-6.1,12.1-7.9c4.6-1.8,9.6-2.7,14.9-2.7
			c3.2,0,6.1,0.2,8.7,0.7c2.6,0.5,4.9,1,6.8,1.6c1.9,0.6,3.5,1.2,4.8,1.9c1.3,0.7,2.2,1.2,2.7,1.5l-4.1,11.5
			c-1.8-1.1-4.4-2.2-7.7-3.2c-3.3-1-6.9-1.5-10.8-1.5c-3.4,0-6.5,0.6-9.4,1.7c-2.9,1.2-5.4,2.9-7.6,5.2c-2.1,2.3-3.8,5.2-5,8.7
			c-1.2,3.5-1.8,7.6-1.8,12.2c0,4.1,0.5,7.9,1.4,11.3c0.9,3.4,2.4,6.4,4.3,8.9c1.9,2.5,4.4,4.4,7.4,5.8c3,1.4,6.6,2.1,10.8,2.1
			c5,0,9.1-0.5,12.2-1.5c3.1-1,5.6-2,7.3-2.9l3.8,11.5c-0.9,0.6-2.1,1.2-3.6,1.8c-1.5,0.6-3.3,1.2-5.4,1.7c-2.1,0.6-4.4,1-7.1,1.3
			C1041.6,401.5,1038.8,401.7,1035.8,401.7z"/>
		<path id="XMLID_68_" d="M1123.6,370.7c0,4.6-0.7,8.8-2,12.7c-1.3,3.8-3.2,7.1-5.7,9.7c-2.5,2.7-5.4,4.8-8.9,6.3
			c-3.5,1.5-7.3,2.2-11.5,2.2c-4.2,0-8-0.7-11.4-2.2c-3.4-1.5-6.4-3.6-8.8-6.3c-2.5-2.7-4.4-5.9-5.8-9.7c-1.4-3.8-2.1-8-2.1-12.7
			c0-4.6,0.7-8.8,2.1-12.6c1.4-3.8,3.3-7,5.8-9.7c2.5-2.7,5.5-4.8,8.9-6.2c3.4-1.5,7.2-2.2,11.3-2.2c4.1,0,7.9,0.7,11.4,2.2
			c3.5,1.5,6.4,3.5,8.9,6.2s4.4,5.9,5.8,9.7C1122.9,361.8,1123.6,366,1123.6,370.7z M1109.7,370.7c0-5.8-1.3-10.4-3.8-13.8
			c-2.5-3.4-6-5.1-10.5-5.1c-4.5,0-8,1.7-10.5,5.1c-2.5,3.4-3.8,8-3.8,13.8c0,5.9,1.3,10.6,3.8,14c2.5,3.4,6,5.2,10.5,5.2
			c4.5,0,8-1.7,10.5-5.2C1108.5,381.2,1109.7,376.6,1109.7,370.7z"/>
		<path id="XMLID_71_" d="M1171,369.2c0-6.1-0.8-10.5-2.3-13.3c-1.5-2.7-4.4-4.1-8.6-4.1c-1.5,0-3.1,0.1-4.9,0.3
			c-1.8,0.2-3.1,0.4-4,0.6V400h-13.6v-56.7c2.6-0.7,6-1.5,10.2-2.1c4.2-0.7,8.7-1,13.4-1c4,0,7.3,0.5,9.9,1.6c2.6,1,4.7,2.4,6.4,4.1
			c0.8-0.6,1.9-1.2,3.1-1.9c1.3-0.7,2.7-1.3,4.3-1.8s3.2-1,5-1.4c1.8-0.4,3.5-0.6,5.3-0.6c4.6,0,8.3,0.7,11.3,2
			c2.9,1.3,5.3,3.1,6.9,5.5s2.8,5.2,3.5,8.5c0.6,3.3,1,7,1,10.9V400h-13.6v-30.8c0-6.1-0.7-10.5-2.2-13.3c-1.5-2.7-4.4-4.1-8.6-4.1
			c-2.2,0-4.2,0.4-6.2,1.1c-1.9,0.7-3.4,1.4-4.4,2.1c0.6,1.9,1,3.8,1.2,5.9c0.2,2.1,0.3,4.3,0.3,6.7V400H1171V369.2z"/>
		<path id="XMLID_73_" d="M1267.9,369.2c0-6.1-0.8-10.5-2.3-13.3c-1.5-2.7-4.4-4.1-8.6-4.1c-1.5,0-3.1,0.1-4.9,0.3
			c-1.8,0.2-3.1,0.4-4,0.6V400h-13.6v-56.7c2.6-0.7,6-1.5,10.2-2.1c4.2-0.7,8.7-1,13.4-1c4,0,7.3,0.5,9.9,1.6c2.6,1,4.7,2.4,6.4,4.1
			c0.8-0.6,1.9-1.2,3.1-1.9c1.3-0.7,2.7-1.3,4.3-1.8s3.2-1,5-1.4c1.8-0.4,3.5-0.6,5.3-0.6c4.6,0,8.3,0.7,11.3,2
			c2.9,1.3,5.3,3.1,6.9,5.5s2.8,5.2,3.5,8.5c0.6,3.3,1,7,1,10.9V400h-13.6v-30.8c0-6.1-0.7-10.5-2.2-13.3c-1.5-2.7-4.4-4.1-8.6-4.1
			c-2.2,0-4.2,0.4-6.2,1.1c-1.9,0.7-3.4,1.4-4.4,2.1c0.6,1.9,1,3.8,1.2,5.9c0.2,2.1,0.3,4.3,0.3,6.7V400h-13.6V369.2z"/>
		<path id="XMLID_75_" d="M1379.4,398.2c-2.6,0.7-6,1.4-10.2,2.1c-4.2,0.7-8.8,1.1-13.8,1.1c-4.7,0-8.6-0.7-11.8-2
			c-3.2-1.3-5.7-3.2-7.6-5.6c-1.9-2.4-3.3-5.2-4.1-8.6c-0.8-3.3-1.2-7-1.2-10.9v-32.8h13.6v30.7c0,6.3,0.9,10.8,2.7,13.4
			c1.8,2.7,5,4,9.6,4c1.6,0,3.4-0.1,5.2-0.2c1.8-0.1,3.2-0.3,4.1-0.6v-47.4h13.6V398.2z"/>
		<path id="XMLID_77_" d="M1396.7,343.3c2.6-0.7,6-1.5,10.2-2.1c4.2-0.7,8.8-1,13.9-1c4.8,0,8.8,0.7,12,2c3.2,1.3,5.8,3.1,7.7,5.5
			c1.9,2.4,3.2,5.2,4,8.5c0.8,3.3,1.2,7,1.2,10.9V400H1432v-30.8c0-3.1-0.2-5.8-0.6-8c-0.4-2.2-1.1-4-2-5.4c-0.9-1.4-2.2-2.4-3.8-3
			c-1.6-0.6-3.6-1-5.9-1c-1.7,0-3.5,0.1-5.4,0.3c-1.9,0.2-3.2,0.4-4.1,0.6V400h-13.6V343.3z"/>
		<path id="XMLID_79_" d="M1477.3,324.3c0,2.5-0.8,4.6-2.5,6c-1.6,1.5-3.6,2.2-5.8,2.2c-2.3,0-4.3-0.7-5.9-2.2
			c-1.6-1.5-2.5-3.5-2.5-6c0-2.6,0.8-4.7,2.5-6.2c1.6-1.5,3.6-2.2,5.9-2.2c2.2,0,4.2,0.7,5.8,2.2
			C1476.5,319.6,1477.3,321.7,1477.3,324.3z M1475.8,400h-13.6v-58.6h13.6V400z"/>
		<path id="XMLID_82_" d="M1492.4,326l13.6-2.2v17.7h20.8v11.3H1506v23.9c0,4.7,0.7,8.1,2.2,10.1c1.5,2,4,3,7.6,3
			c2.5,0,4.6-0.3,6.6-0.8c1.9-0.5,3.4-1,4.5-1.5l2.2,10.8c-1.6,0.7-3.6,1.4-6.2,2.1c-2.5,0.7-5.5,1.1-9,1.1c-4.2,0-7.7-0.6-10.5-1.7
			c-2.8-1.1-5-2.7-6.7-4.9c-1.6-2.1-2.8-4.7-3.5-7.7c-0.7-3-1-6.5-1-10.4V326z"/>
		<path id="XMLID_84_" d="M1555,324.3c0,2.5-0.8,4.6-2.5,6c-1.6,1.5-3.6,2.2-5.8,2.2c-2.3,0-4.3-0.7-5.9-2.2c-1.6-1.5-2.5-3.5-2.5-6
			c0-2.6,0.8-4.7,2.5-6.2c1.6-1.5,3.6-2.2,5.9-2.2c2.2,0,4.2,0.7,5.8,2.2C1554.2,319.6,1555,321.7,1555,324.3z M1553.6,400H1540
			v-58.6h13.6V400z"/>
		<path id="XMLID_87_" d="M1567.6,371c0-5.2,0.8-9.7,2.3-13.6c1.5-3.9,3.6-7.1,6.1-9.7c2.5-2.6,5.4-4.5,8.7-5.8
			c3.3-1.3,6.6-2,10.1-2c8.1,0,14.4,2.5,18.9,7.5c4.5,5,6.8,12.5,6.8,22.4c0,0.7,0,1.6-0.1,2.5c0,0.9-0.1,1.8-0.2,2.5h-38.6
			c0.4,4.7,2,8.3,5,10.9c2.9,2.6,7.2,3.9,12.8,3.9c3.3,0,6.3-0.3,9-0.9c2.7-0.6,4.9-1.2,6.4-1.9l1.8,11.1c-0.7,0.4-1.8,0.8-3.1,1.2
			c-1.3,0.4-2.8,0.8-4.5,1.1c-1.7,0.3-3.5,0.6-5.4,0.8c-1.9,0.2-3.9,0.3-5.9,0.3c-5.2,0-9.6-0.8-13.4-2.3c-3.8-1.5-6.9-3.7-9.4-6.4
			c-2.5-2.7-4.3-5.9-5.5-9.6C1568.2,379.4,1567.6,375.4,1567.6,371z M1606.9,364.9c0-1.9-0.3-3.6-0.8-5.3c-0.5-1.7-1.3-3.1-2.3-4.4
			c-1-1.2-2.2-2.2-3.7-2.9c-1.5-0.7-3.2-1.1-5.2-1.1c-2.1,0-3.9,0.4-5.5,1.2c-1.6,0.8-2.9,1.8-4,3.1c-1.1,1.3-1.9,2.7-2.5,4.4
			c-0.6,1.6-1,3.3-1.2,5H1606.9z"/>
		<path id="XMLID_90_" d="M1649.4,390.3c3.6,0,6.2-0.4,7.8-1.3c1.6-0.9,2.5-2.3,2.5-4.4c0-1.9-0.9-3.5-2.6-4.8
			c-1.8-1.3-4.6-2.7-8.7-4.1c-2.5-0.9-4.7-1.8-6.8-2.9c-2.1-1-3.8-2.2-5.3-3.5c-1.5-1.3-2.7-3-3.5-4.9c-0.9-1.9-1.3-4.2-1.3-7
			c0-5.4,2-9.6,5.9-12.7c4-3.1,9.3-4.6,16.1-4.6c3.4,0,6.7,0.3,9.9,1c3.1,0.6,5.5,1.3,7.1,1.8l-2.5,11c-1.5-0.7-3.4-1.3-5.7-1.8
			c-2.3-0.6-5-0.8-8.1-0.8c-2.8,0-5,0.5-6.7,1.4c-1.7,0.9-2.6,2.4-2.6,4.3c0,1,0.2,1.8,0.5,2.6c0.3,0.7,0.9,1.4,1.7,2.1
			c0.8,0.6,1.9,1.3,3.2,1.9c1.3,0.6,3,1.3,4.9,2c3.2,1.2,5.9,2.4,8.2,3.5c2.2,1.2,4.1,2.5,5.5,3.9c1.5,1.5,2.5,3.1,3.2,5
			c0.7,1.9,1,4.1,1,6.7c0,5.6-2.1,9.8-6.2,12.7c-4.1,2.9-10.1,4.3-17.8,4.3c-5.2,0-9.3-0.4-12.4-1.3s-5.3-1.5-6.6-2.1l2.4-11.3
			c2,0.8,4.4,1.6,7.2,2.4S1645.8,390.3,1649.4,390.3z"/>
	</g>
	<g id="XMLID_39_">
		<path id="XMLID_40_" d="M1053.6,530.7c0,4.6-0.7,8.8-2,12.7c-1.3,3.8-3.2,7.1-5.7,9.7c-2.5,2.7-5.4,4.8-8.9,6.3
			c-3.5,1.5-7.3,2.2-11.5,2.2c-4.2,0-8-0.7-11.4-2.2c-3.4-1.5-6.4-3.6-8.8-6.3c-2.5-2.7-4.4-5.9-5.8-9.7c-1.4-3.8-2.1-8-2.1-12.7
			c0-4.6,0.7-8.8,2.1-12.6c1.4-3.8,3.3-7,5.8-9.7s5.5-4.8,8.9-6.2c3.4-1.5,7.2-2.2,11.3-2.2c4.1,0,7.9,0.7,11.4,2.2
			c3.5,1.5,6.4,3.5,8.9,6.2s4.4,5.9,5.8,9.7C1052.9,521.8,1053.6,526,1053.6,530.7z M1039.7,530.7c0-5.8-1.3-10.4-3.8-13.8
			c-2.5-3.4-6-5.1-10.5-5.1c-4.5,0-8,1.7-10.5,5.1c-2.5,3.4-3.8,8-3.8,13.8c0,5.9,1.3,10.6,3.8,14c2.5,3.4,6,5.2,10.5,5.2
			c4.5,0,8-1.7,10.5-5.2C1038.5,541.2,1039.7,536.6,1039.7,530.7z"/>
		<path id="XMLID_43_" d="M1091.5,473.1c3.1,0,5.9,0.3,8.3,0.8c2.4,0.6,4.2,1.1,5.4,1.5l-2.6,11.2c-1.3-0.6-2.7-1.1-4.4-1.5
			c-1.7-0.4-3.5-0.6-5.4-0.6c-2.2,0-4,0.3-5.5,1c-1.5,0.6-2.7,1.5-3.6,2.6c-0.9,1.1-1.5,2.5-1.9,4.1c-0.4,1.6-0.6,3.3-0.6,5.2v3.9
			h21.3v11.3h-21.3V560h-13.6v-62.7c0-7.5,2-13.5,5.9-17.8C1077.5,475.2,1083.5,473.1,1091.5,473.1z"/>
		<path id="XMLID_45_" d="M1161.1,481.6c11.3,0,19.9,2.1,25.9,6.2c6,4.1,9,10.5,9,19.3c0,4.6-0.8,8.5-2.4,11.7c-1.6,3.2-3.9,5.9-7,8
			c-3.1,2.1-6.8,3.6-11.2,4.5c-4.4,1-9.4,1.5-15.1,1.5h-7.1V560h-14.1v-76.5c3.3-0.7,6.9-1.3,10.9-1.5
			C1154.1,481.7,1157.8,481.6,1161.1,481.6z M1162.1,493.8c-3.6,0-6.5,0.1-8.8,0.3v26.4h6.8c6.8,0,12-1,15.7-2.9
			c3.7-1.9,5.5-5.5,5.5-10.8c0-2.5-0.5-4.7-1.5-6.4c-1-1.7-2.3-3.1-4-4c-1.7-1-3.8-1.7-6.1-2.1
			C1167.3,494,1164.8,493.8,1162.1,493.8z"/>
		<path id="XMLID_48_" d="M1241.6,513.6c-1.1-0.4-2.7-0.8-4.6-1.2c-2-0.4-4.3-0.6-6.9-0.6c-1.5,0-3.1,0.2-4.8,0.4
			c-1.7,0.3-2.9,0.6-3.5,0.8V560h-13.6v-55.8c2.6-1,5.9-1.9,9.8-2.7c3.9-0.9,8.3-1.3,13-1.3c0.9,0,1.9,0.1,3.1,0.2
			c1.2,0.1,2.4,0.3,3.6,0.4c1.2,0.2,2.4,0.4,3.5,0.7s2,0.5,2.7,0.7L1241.6,513.6z"/>
		<path id="XMLID_50_" d="M1272.9,500c4.5,0,8.2,0.6,11.3,1.7c3.1,1.1,5.5,2.7,7.3,4.7c1.8,2,3.1,4.5,3.9,7.3c0.8,2.9,1.2,6,1.2,9.5
			v35.5c-2.1,0.4-5.2,1-9.5,1.6c-4.2,0.6-9,1-14.3,1c-3.5,0-6.7-0.3-9.6-1c-2.9-0.7-5.4-1.8-7.4-3.2c-2.1-1.5-3.7-3.4-4.8-5.8
			c-1.2-2.4-1.7-5.3-1.7-8.8c0-3.4,0.7-6.2,2-8.5c1.3-2.3,3.1-4.2,5.3-5.7c2.2-1.5,4.8-2.5,7.8-3.1c2.9-0.6,6-1,9.2-1
			c1.5,0,3.1,0.1,4.7,0.3c1.6,0.2,3.4,0.5,5.3,1V523c0-1.6-0.2-3.1-0.6-4.5c-0.4-1.4-1-2.7-2-3.8c-0.9-1.1-2.2-1.9-3.7-2.5
			c-1.5-0.6-3.5-0.9-5.8-0.9c-3.1,0-6,0.2-8.6,0.7c-2.6,0.4-4.7,1-6.4,1.6l-1.7-11c1.7-0.6,4.2-1.2,7.5-1.8
			C1265.6,500.3,1269.2,500,1272.9,500z M1274,550.5c4.2,0,7.4-0.2,9.5-0.7v-15c-0.7-0.2-1.8-0.4-3.2-0.7c-1.4-0.2-3-0.3-4.7-0.3
			c-1.5,0-3,0.1-4.5,0.3c-1.5,0.2-2.9,0.6-4.1,1.2c-1.2,0.6-2.2,1.4-3,2.5c-0.7,1.1-1.1,2.4-1.1,4.1c0,3.2,1,5.4,3,6.7
			C1267.9,549.9,1270.6,550.5,1274,550.5z"/>
		<path id="XMLID_53_" d="M1310,530.8c0-4.3,0.7-8.4,2-12.2c1.3-3.8,3.3-7,5.8-9.8c2.5-2.8,5.5-4.9,9.1-6.5s7.6-2.4,12.1-2.4
			c5.5,0,10.8,1,15.7,3l-2.9,11.1c-1.6-0.7-3.3-1.2-5.3-1.7c-2-0.4-4.1-0.7-6.3-0.7c-5.3,0-9.3,1.7-12.1,5c-2.8,3.3-4.1,8-4.1,14.1
			c0,5.8,1.3,10.4,3.9,13.8c2.6,3.4,7,5.1,13.2,5.1c2.3,0,4.6-0.2,6.8-0.7c2.2-0.4,4.2-1,5.8-1.7l1.9,11.2c-1.5,0.7-3.8,1.4-6.8,2
			c-3,0.6-6.1,0.9-9.4,0.9c-5,0-9.4-0.8-13-2.3s-6.8-3.7-9.2-6.4c-2.4-2.7-4.2-6-5.4-9.7C1310.6,539.3,1310,535.2,1310,530.8z"/>
		<path id="XMLID_55_" d="M1365.4,486l13.6-2.2v17.7h20.8v11.3H1379v23.9c0,4.7,0.7,8.1,2.2,10.1c1.5,2,4,3,7.6,3
			c2.5,0,4.6-0.3,6.6-0.8c1.9-0.5,3.4-1,4.5-1.5l2.2,10.8c-1.6,0.7-3.6,1.4-6.2,2.1c-2.5,0.7-5.5,1.1-9,1.1c-4.2,0-7.7-0.6-10.5-1.7
			c-2.8-1.1-5-2.7-6.7-4.9c-1.6-2.1-2.8-4.7-3.5-7.7c-0.7-3-1-6.5-1-10.4V486z"/>
		<path id="XMLID_57_" d="M1428,484.3c0,2.5-0.8,4.6-2.5,6c-1.6,1.5-3.6,2.2-5.8,2.2c-2.3,0-4.3-0.7-5.9-2.2c-1.6-1.5-2.5-3.5-2.5-6
			c0-2.6,0.8-4.7,2.5-6.2c1.6-1.5,3.6-2.2,5.9-2.2c2.2,0,4.2,0.7,5.8,2.2C1427.2,479.6,1428,481.7,1428,484.3z M1426.6,560H1413
			v-58.6h13.6V560z"/>
		<path id="XMLID_60_" d="M1440.6,530.8c0-4.3,0.7-8.4,2-12.2c1.3-3.8,3.3-7,5.8-9.8c2.5-2.8,5.5-4.9,9.1-6.5s7.6-2.4,12.1-2.4
			c5.5,0,10.8,1,15.7,3l-2.9,11.1c-1.6-0.7-3.3-1.2-5.3-1.7c-2-0.4-4.1-0.7-6.3-0.7c-5.3,0-9.3,1.7-12.1,5c-2.8,3.3-4.1,8-4.1,14.1
			c0,5.8,1.3,10.4,3.9,13.8c2.6,3.4,7,5.1,13.2,5.1c2.3,0,4.6-0.2,6.8-0.7c2.2-0.4,4.2-1,5.8-1.7l1.9,11.2c-1.5,0.7-3.8,1.4-6.8,2
			c-3,0.6-6.1,0.9-9.4,0.9c-5,0-9.4-0.8-13-2.3s-6.8-3.7-9.2-6.4c-2.4-2.7-4.2-6-5.4-9.7C1441.1,539.3,1440.6,535.2,1440.6,530.8z"
			/>
		<path id="XMLID_62_" d="M1493.4,531c0-5.2,0.8-9.7,2.3-13.6c1.5-3.9,3.6-7.1,6.1-9.7c2.5-2.6,5.4-4.5,8.7-5.8
			c3.3-1.3,6.6-2,10.1-2c8.1,0,14.4,2.5,18.9,7.5c4.5,5,6.8,12.5,6.8,22.4c0,0.7,0,1.6-0.1,2.5c0,0.9-0.1,1.8-0.2,2.5h-38.6
			c0.4,4.7,2,8.3,5,10.9c2.9,2.6,7.2,3.9,12.8,3.9c3.3,0,6.3-0.3,9-0.9c2.7-0.6,4.9-1.2,6.4-1.9l1.8,11.1c-0.7,0.4-1.8,0.8-3.1,1.2
			c-1.3,0.4-2.8,0.8-4.5,1.1c-1.7,0.3-3.5,0.6-5.4,0.8c-1.9,0.2-3.9,0.3-5.9,0.3c-5.2,0-9.6-0.8-13.4-2.3c-3.8-1.5-6.9-3.7-9.4-6.4
			c-2.5-2.7-4.3-5.9-5.5-9.6C1494,539.4,1493.4,535.4,1493.4,531z M1532.7,524.9c0-1.9-0.3-3.6-0.8-5.3c-0.5-1.7-1.3-3.1-2.3-4.4
			c-1-1.2-2.2-2.2-3.7-2.9c-1.5-0.7-3.2-1.1-5.2-1.1c-2.1,0-3.9,0.4-5.5,1.2c-1.6,0.8-2.9,1.8-4,3.1c-1.1,1.3-1.9,2.7-2.5,4.4
			c-0.6,1.6-1,3.3-1.2,5H1532.7z"/>
	</g>
</g>
</svg>
