<svg xmlns="http://www.w3.org/2000/svg" xmlns:xlink="http://www.w3.org/1999/xlink" preserveAspectRatio="xMidYMid" width="962" height="301" viewBox="0 0 962 301">
  <defs>
    <style>
      .cls-1 {
        fill: #000;
        opacity: 0.87;
      }

      .cls-1, .cls-2 {
        fill-rule: evenodd;
      }

      .cls-2 {
        fill: #ffd600;
      }
    </style>
  </defs>
  <g>
    <path d="M940.010,153.215 C940.701,153.747 941.613,154.279 942.744,154.809 C943.876,155.341 945.258,155.887 946.893,156.450 C949.595,157.450 951.891,158.434 953.777,159.403 C955.662,160.372 957.218,161.465 958.444,162.684 C959.670,163.903 960.566,165.294 961.132,166.856 C961.697,168.419 961.980,170.294 961.980,172.481 C961.980,177.168 960.236,180.716 956.747,183.122 C953.258,185.527 948.275,186.731 941.801,186.731 C937.464,186.731 933.975,186.371 931.335,185.653 C928.694,184.935 926.839,184.356 925.771,183.918 L927.751,174.450 C929.449,175.138 931.476,175.794 933.833,176.418 C936.191,177.044 938.878,177.356 941.895,177.356 C944.913,177.356 947.113,176.997 948.496,176.278 C949.878,175.560 950.571,174.325 950.571,172.575 C950.571,170.950 949.831,169.607 948.355,168.543 C946.877,167.481 944.441,166.326 941.047,165.075 C938.972,164.325 937.070,163.528 935.342,162.684 C933.612,161.840 932.120,160.856 930.863,159.731 C929.605,158.606 928.615,157.247 927.893,155.653 C927.169,154.059 926.808,152.106 926.808,149.793 C926.808,145.293 928.473,141.747 931.806,139.153 C935.137,136.560 939.663,135.262 945.384,135.262 C948.275,135.262 951.042,135.529 953.682,136.059 C956.322,136.591 958.303,137.106 959.623,137.606 L957.548,146.793 C956.290,146.231 954.687,145.715 952.739,145.247 C950.790,144.778 948.527,144.543 945.950,144.543 C943.624,144.543 941.738,144.934 940.292,145.715 C938.846,146.497 938.124,147.700 938.124,149.325 C938.124,150.138 938.265,150.857 938.548,151.481 C938.831,152.106 939.317,152.685 940.010,153.215 ZM917.285,164.512 L884.753,164.512 C885.067,168.450 886.465,171.497 888.949,173.653 C891.432,175.809 895.031,176.887 899.746,176.887 C902.511,176.887 905.041,176.638 907.337,176.137 C909.631,175.638 911.438,175.106 912.759,174.543 L914.267,183.825 C913.638,184.138 912.773,184.466 911.674,184.809 C910.574,185.153 909.317,185.465 907.902,185.747 C906.488,186.028 904.963,186.262 903.329,186.450 C901.694,186.637 900.029,186.731 898.332,186.731 C893.994,186.731 890.222,186.089 887.016,184.809 C883.810,183.529 881.170,181.747 879.096,179.465 C877.021,177.184 875.480,174.497 874.475,171.403 C873.469,168.309 872.966,164.919 872.966,161.231 C872.966,156.918 873.610,153.138 874.899,149.887 C876.187,146.638 877.901,143.934 880.039,141.778 C882.175,139.622 884.627,137.997 887.393,136.903 C890.159,135.810 892.988,135.262 895.880,135.262 C902.669,135.262 907.964,137.357 911.769,141.543 C915.571,145.731 917.473,151.982 917.473,160.293 C917.473,160.919 917.457,161.622 917.426,162.403 C917.394,163.185 917.347,163.888 917.285,164.512 ZM905.404,151.715 C904.963,150.309 904.319,149.090 903.471,148.059 C902.622,147.028 901.585,146.216 900.359,145.622 C899.133,145.028 897.672,144.731 895.974,144.731 C894.214,144.731 892.674,145.059 891.354,145.715 C890.034,146.372 888.917,147.231 888.006,148.293 C887.094,149.357 886.387,150.576 885.885,151.950 C885.381,153.325 885.036,154.731 884.848,156.168 L906.064,156.168 C906.064,154.607 905.843,153.122 905.404,151.715 ZM855.429,129.075 C853.480,129.075 851.813,128.451 850.431,127.200 C849.048,125.950 848.357,124.263 848.357,122.137 C848.357,119.950 849.048,118.232 850.431,116.981 C851.813,115.731 853.480,115.106 855.429,115.106 C857.315,115.106 858.949,115.731 860.332,116.981 C861.714,118.232 862.407,119.950 862.407,122.137 C862.407,124.263 861.714,125.950 860.332,127.200 C858.949,128.451 857.315,129.075 855.429,129.075 ZM849.771,136.481 L861.181,136.481 L861.181,185.512 L849.771,185.512 L849.771,136.481 ZM855.049,272.793 C855.049,273.419 855.033,274.122 855.002,274.903 C854.969,275.685 854.922,276.388 854.860,277.012 L822.329,277.012 C822.643,280.950 824.041,283.997 826.525,286.153 C829.007,288.309 832.607,289.387 837.322,289.387 C840.087,289.387 842.617,289.138 844.912,288.637 C847.206,288.138 849.014,287.606 850.334,287.043 L851.843,296.325 C851.214,296.638 850.349,296.966 849.250,297.309 C848.149,297.653 846.892,297.965 845.478,298.247 C844.064,298.528 842.539,298.762 840.905,298.950 C839.269,299.137 837.604,299.231 835.907,299.231 C831.570,299.231 827.798,298.589 824.592,297.309 C821.386,296.029 818.746,294.247 816.671,291.965 C814.597,289.684 813.055,286.997 812.051,283.903 C811.044,280.809 810.542,277.419 810.542,273.731 C810.542,269.418 811.186,265.638 812.475,262.387 C813.763,259.138 815.476,256.434 817.614,254.278 C819.750,252.122 822.202,250.497 824.969,249.403 C827.734,248.310 830.563,247.762 833.455,247.762 C840.245,247.762 845.540,249.857 849.344,254.043 C853.147,258.231 855.049,264.482 855.049,272.793 ZM842.979,264.215 C842.539,262.809 841.895,261.590 841.046,260.559 C840.197,259.528 839.160,258.716 837.934,258.122 C836.709,257.528 835.247,257.231 833.550,257.231 C831.789,257.231 830.249,257.559 828.929,258.215 C827.609,258.872 826.492,259.731 825.582,260.793 C824.670,261.857 823.963,263.076 823.460,264.450 C822.956,265.825 822.612,267.231 822.423,268.668 L843.639,268.668 C843.639,267.107 843.418,265.622 842.979,264.215 ZM827.895,186.637 C824.374,186.637 821.436,186.168 819.079,185.231 C816.721,184.293 814.850,182.934 813.468,181.153 C812.085,179.372 811.111,177.215 810.545,174.684 C809.979,172.153 809.696,169.263 809.696,166.012 L809.696,123.543 L821.106,121.668 L821.106,136.481 L838.645,136.481 L838.645,145.950 L821.106,145.950 L821.106,165.918 C821.106,169.856 821.734,172.668 822.992,174.356 C824.249,176.043 826.386,176.887 829.404,176.887 C831.478,176.887 833.317,176.669 834.920,176.231 C836.523,175.794 837.796,175.387 838.739,175.012 L840.625,184.012 C839.305,184.575 837.575,185.153 835.439,185.747 C833.301,186.340 830.786,186.637 827.895,186.637 ZM792.156,289.387 C794.104,289.387 796.022,289.200 797.908,288.825 C799.794,288.450 801.428,287.981 802.811,287.418 L804.414,296.793 C803.156,297.419 801.255,297.981 798.709,298.481 C796.163,298.980 793.538,299.231 790.836,299.231 C786.624,299.231 782.962,298.589 779.851,297.309 C776.739,296.029 774.160,294.247 772.118,291.965 C770.075,289.684 768.550,286.966 767.545,283.809 C766.539,280.654 766.036,277.232 766.036,273.543 C766.036,269.919 766.602,266.528 767.734,263.372 C768.865,260.216 770.483,257.481 772.590,255.168 C774.695,252.857 777.257,251.043 780.275,249.731 C783.292,248.418 786.687,247.762 790.459,247.762 C795.110,247.762 799.511,248.606 803.660,250.293 L801.208,259.575 C799.888,259.012 798.394,258.543 796.729,258.168 C795.063,257.793 793.288,257.606 791.402,257.606 C786.937,257.606 783.543,258.997 781.218,261.778 C778.891,264.559 777.729,268.481 777.729,273.543 C777.729,278.418 778.828,282.278 781.029,285.122 C783.229,287.966 786.937,289.387 792.156,289.387 ZM795.742,185.512 L784.333,185.512 L784.333,136.481 L795.742,136.481 L795.742,185.512 ZM789.990,129.075 C788.041,129.075 786.375,128.451 784.993,127.200 C783.609,125.950 782.918,124.263 782.918,122.137 C782.918,119.950 783.609,118.232 784.993,116.981 C786.375,115.731 788.041,115.106 789.990,115.106 C791.876,115.106 793.510,115.731 794.894,116.981 C796.276,118.232 796.968,119.950 796.968,122.137 C796.968,124.263 796.276,125.950 794.894,127.200 C793.510,128.451 791.876,129.075 789.990,129.075 ZM758.874,159.731 C758.874,157.106 758.700,154.872 758.355,153.028 C758.009,151.185 757.443,149.685 756.658,148.528 C755.871,147.372 754.803,146.528 753.452,145.997 C752.099,145.466 750.449,145.200 748.502,145.200 C747.055,145.200 745.546,145.293 743.975,145.481 C742.403,145.668 741.241,145.825 740.487,145.950 L740.487,185.512 L729.077,185.512 L729.077,138.075 C731.277,137.451 734.136,136.856 737.658,136.293 C741.178,135.731 745.075,135.450 749.350,135.450 C753.372,135.450 756.736,135.997 759.440,137.090 C762.142,138.184 764.296,139.715 765.899,141.684 C767.502,143.653 768.633,146.029 769.293,148.809 C769.953,151.591 770.284,154.638 770.284,157.950 L770.284,185.512 L758.874,185.512 L758.874,159.731 ZM694.377,186.637 C690.417,186.637 687.100,186.075 684.429,184.950 C681.757,183.825 679.620,182.263 678.017,180.262 C676.414,178.263 675.266,175.872 674.576,173.090 C673.883,170.310 673.538,167.263 673.538,163.950 L673.538,136.481 L684.948,136.481 L684.948,162.168 C684.948,167.418 685.717,171.168 687.258,173.418 C688.798,175.668 691.485,176.793 695.320,176.793 C696.702,176.793 698.164,176.732 699.705,176.606 C701.245,176.481 702.392,176.325 703.147,176.137 L703.147,136.481 L714.556,136.481 L714.556,184.012 C712.355,184.575 709.495,185.153 705.976,185.747 C702.454,186.340 698.588,186.637 694.377,186.637 ZM693.716,250.293 L691.264,259.575 C689.944,259.012 688.450,258.543 686.785,258.168 C685.119,257.793 683.343,257.606 681.457,257.606 C676.993,257.606 673.598,258.997 671.274,261.778 C668.947,264.559 667.785,268.481 667.785,273.543 C667.785,278.418 668.884,282.278 671.085,285.122 C673.285,287.966 676.993,289.387 682.212,289.387 C684.159,289.387 686.078,289.200 687.964,288.825 C689.850,288.450 691.483,287.981 692.867,287.418 L694.470,296.793 C693.212,297.419 691.311,297.981 688.765,298.481 C686.219,298.980 683.594,299.231 680.892,299.231 C676.679,299.231 673.018,298.589 669.906,297.309 C666.795,296.029 664.216,294.247 662.174,291.965 C660.131,289.684 658.606,286.966 657.601,283.809 C656.595,280.654 656.092,277.232 656.092,273.543 C656.092,269.919 656.658,266.528 657.789,263.372 C658.921,260.216 660.539,257.481 662.646,255.168 C664.751,252.857 667.313,251.043 670.331,249.731 C673.348,248.418 676.743,247.762 680.514,247.762 C685.166,247.762 689.567,248.606 693.716,250.293 ZM648.740,159.731 C648.740,154.607 648.111,150.904 646.854,148.622 C645.596,146.341 643.176,145.200 639.593,145.200 C637.769,145.200 636.041,145.497 634.407,146.090 C632.772,146.685 631.546,147.262 630.730,147.825 C631.232,149.388 631.578,151.044 631.767,152.793 C631.955,154.544 632.050,156.419 632.050,158.418 L632.050,185.512 L620.640,185.512 L620.640,159.731 C620.640,154.607 619.995,150.904 618.707,148.622 C617.418,146.341 615.013,145.200 611.494,145.200 C610.235,145.200 608.853,145.293 607.345,145.481 C605.836,145.668 604.704,145.825 603.950,145.950 L603.950,185.512 L592.540,185.512 L592.540,138.075 C594.740,137.451 597.616,136.856 601.168,136.293 C604.719,135.731 608.476,135.450 612.436,135.450 C615.831,135.450 618.613,135.888 620.782,136.762 C622.950,137.638 624.757,138.794 626.203,140.231 C626.894,139.731 627.774,139.200 628.844,138.637 C629.912,138.075 631.107,137.559 632.427,137.090 C633.747,136.622 635.145,136.232 636.623,135.918 C638.099,135.606 639.593,135.450 641.102,135.450 C644.936,135.450 648.094,135.997 650.579,137.090 C653.061,138.184 655.010,139.715 656.425,141.684 C657.839,143.653 658.813,146.029 659.348,148.809 C659.881,151.591 660.149,154.638 660.149,157.950 L660.149,185.512 L648.740,185.512 L648.740,159.731 ZM636.292,47.231 C636.292,44.606 636.119,42.372 635.774,40.528 C635.428,38.685 634.862,37.185 634.077,36.028 C633.290,34.872 632.222,34.028 630.871,33.497 C629.518,32.966 627.868,32.700 625.920,32.700 C624.473,32.700 622.965,32.793 621.394,32.981 C619.822,33.168 618.659,33.325 617.905,33.450 L617.905,73.012 L606.495,73.012 L606.495,25.575 C608.695,24.951 611.555,24.356 615.076,23.793 C618.596,23.231 622.493,22.950 626.769,22.950 C630.791,22.950 634.155,23.497 636.858,24.590 C639.560,25.684 641.714,27.215 643.317,29.184 C644.920,31.153 646.052,33.529 646.712,36.309 C647.372,39.091 647.702,42.138 647.702,45.450 L647.702,73.012 L636.292,73.012 L636.292,47.231 ZM572.550,74.043 C569.594,74.043 566.892,73.762 564.441,73.200 C561.989,72.637 559.898,71.732 558.170,70.481 C556.440,69.231 555.089,67.607 554.115,65.606 C553.140,63.606 552.654,61.138 552.654,58.200 C552.654,55.387 553.203,53.013 554.304,51.075 C555.403,49.138 556.897,47.559 558.783,46.340 C560.669,45.122 562.852,44.247 565.336,43.715 C567.819,43.185 570.412,42.918 573.116,42.918 C574.372,42.918 575.693,42.997 577.076,43.153 C578.458,43.309 579.936,43.575 581.508,43.950 L581.508,42.075 C581.508,40.762 581.350,39.513 581.036,38.325 C580.721,37.138 580.171,36.091 579.386,35.184 C578.599,34.279 577.562,33.576 576.274,33.075 C574.985,32.575 573.366,32.325 571.418,32.325 C568.778,32.325 566.357,32.512 564.158,32.887 C561.956,33.262 560.165,33.700 558.783,34.200 L557.368,25.012 C558.814,24.513 560.919,24.013 563.686,23.512 C566.452,23.013 569.406,22.762 572.550,22.762 C576.322,22.762 579.495,23.231 582.074,24.168 C584.650,25.106 586.709,26.418 588.250,28.106 C589.790,29.793 590.890,31.841 591.550,34.247 C592.210,36.653 592.540,39.294 592.540,42.168 L592.540,71.887 C590.780,72.262 588.123,72.716 584.572,73.247 C581.020,73.777 577.013,74.043 572.550,74.043 ZM581.508,51.918 C580.879,51.731 579.967,51.543 578.773,51.356 C577.578,51.168 576.258,51.075 574.813,51.075 C573.555,51.075 572.282,51.168 570.994,51.356 C569.705,51.543 568.542,51.888 567.505,52.387 C566.468,52.888 565.634,53.591 565.006,54.497 C564.377,55.403 564.063,56.544 564.063,57.918 C564.063,60.606 564.912,62.465 566.609,63.497 C568.307,64.528 570.601,65.043 573.493,65.043 C577.013,65.043 579.684,64.856 581.508,64.481 L581.508,51.918 ZM559.538,135.450 C563.372,135.450 566.531,135.997 569.015,137.090 C571.497,138.184 573.447,139.715 574.861,141.684 C576.276,143.653 577.249,146.029 577.784,148.809 C578.318,151.591 578.586,154.638 578.586,157.950 L578.586,185.512 L567.176,185.512 L567.176,159.731 C567.176,154.607 566.547,150.904 565.290,148.622 C564.032,146.341 561.613,145.200 558.030,145.200 C556.206,145.200 554.477,145.497 552.843,146.090 C551.208,146.685 549.982,147.262 549.166,147.825 C549.668,149.388 550.015,151.044 550.203,152.793 C550.392,154.544 550.486,156.419 550.486,158.418 L550.486,185.512 L539.076,185.512 L539.076,159.731 C539.076,154.607 538.431,150.904 537.143,148.622 C535.854,146.341 533.450,145.200 529.930,145.200 C528.672,145.200 527.290,145.293 525.781,145.481 C524.272,145.668 523.141,145.825 522.386,145.950 L522.386,185.512 L510.977,185.512 L510.977,138.075 C513.176,137.451 516.052,136.856 519.605,136.293 C523.155,135.731 526.912,135.450 530.873,135.450 C534.267,135.450 537.049,135.888 539.218,136.762 C541.387,137.638 543.193,138.794 544.640,140.231 C545.331,139.731 546.210,139.200 547.280,138.637 C548.348,138.075 549.543,137.559 550.863,137.090 C552.183,136.622 553.582,136.232 555.059,135.918 C556.536,135.606 558.030,135.450 559.538,135.450 ZM537.614,67.293 C535.446,69.543 532.820,71.263 529.741,72.450 C526.660,73.636 523.171,74.231 519.274,74.231 C515.502,74.231 511.903,73.950 508.478,73.387 C505.051,72.825 502.207,72.201 499.944,71.512 L499.944,2.137 L511.354,0.262 L511.354,25.668 C512.674,24.981 514.291,24.356 516.210,23.793 C518.126,23.231 520.248,22.950 522.575,22.950 C526.031,22.950 529.128,23.559 531.863,24.778 C534.597,25.997 536.875,27.731 538.699,29.981 C540.521,32.231 541.920,34.935 542.895,38.090 C543.869,41.247 544.357,44.732 544.357,48.543 C544.357,52.481 543.775,56.029 542.612,59.184 C541.448,62.341 539.783,65.043 537.614,67.293 ZM529.788,36.918 C527.870,34.106 524.838,32.700 520.689,32.700 C518.803,32.700 517.026,32.981 515.361,33.543 C513.695,34.106 512.358,34.731 511.354,35.418 L511.354,63.637 C512.170,63.825 513.223,63.997 514.512,64.153 C515.800,64.309 517.356,64.387 519.180,64.387 C523.391,64.387 526.691,62.966 529.081,60.122 C531.469,57.278 532.664,53.357 532.664,48.356 C532.664,43.544 531.705,39.731 529.788,36.918 ZM492.684,179.700 C490.610,181.950 488.111,183.700 485.188,184.950 C482.265,186.199 479.043,186.825 475.523,186.825 C472.002,186.825 468.796,186.199 465.905,184.950 C463.013,183.700 460.530,181.950 458.456,179.700 C456.381,177.450 454.762,174.731 453.599,171.543 C452.435,168.356 451.855,164.826 451.855,160.950 C451.855,157.075 452.435,153.559 453.599,150.403 C454.762,147.247 456.396,144.543 458.503,142.293 C460.608,140.043 463.107,138.309 465.999,137.090 C468.890,135.872 472.065,135.262 475.523,135.262 C478.979,135.262 482.171,135.872 485.094,137.090 C488.017,138.309 490.516,140.043 492.590,142.293 C494.665,144.543 496.282,147.247 497.446,150.403 C498.609,153.559 499.191,157.075 499.191,160.950 C499.191,164.826 498.625,168.356 497.493,171.543 C496.362,174.731 494.759,177.450 492.684,179.700 ZM484.339,149.372 C482.232,146.528 479.295,145.106 475.523,145.106 C471.751,145.106 468.812,146.528 466.706,149.372 C464.599,152.216 463.547,156.075 463.547,160.950 C463.547,165.888 464.599,169.794 466.706,172.668 C468.812,175.544 471.751,176.981 475.523,176.981 C479.295,176.981 482.232,175.544 484.339,172.668 C486.445,169.794 487.498,165.888 487.498,160.950 C487.498,156.075 486.445,152.216 484.339,149.372 ZM486.130,33.215 C484.463,32.872 482.530,32.700 480.331,32.700 C479.072,32.700 477.738,32.826 476.323,33.075 C474.909,33.325 473.919,33.543 473.353,33.731 L473.353,73.012 L461.943,73.012 L461.943,26.325 C464.143,25.513 466.894,24.747 470.194,24.028 C473.494,23.310 477.156,22.950 481.179,22.950 C481.934,22.950 482.813,22.997 483.820,23.090 C484.824,23.184 485.831,23.310 486.837,23.465 C487.842,23.622 488.817,23.809 489.760,24.028 C490.703,24.247 491.457,24.450 492.023,24.637 L490.043,34.200 C489.100,33.888 487.795,33.559 486.130,33.215 ZM441.058,67.106 C438.951,69.419 436.264,71.216 432.996,72.497 C429.727,73.777 425.861,74.418 421.398,74.418 C416.934,74.418 413.100,73.777 409.894,72.497 C406.688,71.216 404.032,69.419 401.926,67.106 C399.819,64.794 398.263,62.076 397.259,58.950 C396.252,55.825 395.750,52.387 395.750,48.637 L395.750,8.043 L407.725,8.043 L407.725,47.512 C407.725,50.451 408.055,52.966 408.715,55.059 C409.375,57.154 410.318,58.856 411.544,60.168 C412.770,61.481 414.215,62.451 415.882,63.075 C417.547,63.700 419.418,64.012 421.492,64.012 C423.567,64.012 425.453,63.700 427.150,63.075 C428.847,62.451 430.309,61.481 431.535,60.168 C432.760,58.856 433.703,57.154 434.363,55.059 C435.023,52.966 435.353,50.451 435.353,47.512 L435.353,8.043 L447.329,8.043 L447.329,48.637 C447.329,52.387 446.810,55.825 445.773,58.950 C444.736,62.076 443.164,64.794 441.058,67.106 ZM403.105,127.903 C405.996,124.997 409.390,122.793 413.289,121.293 C417.186,119.793 421.366,119.043 425.830,119.043 C428.532,119.043 430.984,119.247 433.185,119.653 C435.384,120.060 437.301,120.513 438.937,121.012 C440.571,121.513 441.922,122.043 442.991,122.606 C444.059,123.168 444.814,123.576 445.254,123.825 L441.765,133.481 C440.257,132.543 438.103,131.653 435.306,130.809 C432.508,129.965 429.475,129.543 426.207,129.543 C423.378,129.543 420.738,130.028 418.286,130.997 C415.835,131.966 413.713,133.419 411.921,135.356 C410.130,137.294 408.730,139.731 407.725,142.668 C406.719,145.607 406.217,149.013 406.217,152.887 C406.217,156.325 406.608,159.482 407.395,162.356 C408.181,165.231 409.390,167.716 411.026,169.809 C412.659,171.904 414.734,173.528 417.249,174.684 C419.763,175.841 422.780,176.418 426.301,176.418 C430.512,176.418 433.939,175.997 436.579,175.153 C439.220,174.309 441.262,173.512 442.708,172.762 L445.914,182.418 C445.160,182.919 444.138,183.419 442.850,183.918 C441.561,184.419 440.036,184.903 438.277,185.372 C436.516,185.840 434.536,186.215 432.336,186.497 C430.135,186.778 427.778,186.918 425.264,186.918 C420.361,186.918 415.960,186.168 412.063,184.668 C408.164,183.168 404.864,180.965 402.162,178.059 C399.458,175.153 397.384,171.606 395.938,167.418 C394.492,163.232 393.770,158.418 393.770,152.981 C393.770,147.543 394.602,142.731 396.268,138.543 C397.933,134.357 400.213,130.809 403.105,127.903 ZM399.569,254.793 C401.674,252.543 404.173,250.809 407.065,249.590 C409.956,248.372 413.131,247.762 416.589,247.762 C420.045,247.762 423.237,248.372 426.160,249.590 C429.083,250.809 431.582,252.543 433.656,254.793 C435.731,257.043 437.348,259.747 438.512,262.903 C439.675,266.059 440.257,269.575 440.257,273.450 C440.257,277.326 439.691,280.856 438.559,284.043 C437.428,287.231 435.825,289.950 433.750,292.200 C431.676,294.450 429.177,296.200 426.254,297.450 C423.331,298.699 420.109,299.325 416.589,299.325 C413.068,299.325 409.862,298.699 406.971,297.450 C404.079,296.200 401.596,294.450 399.522,292.200 C397.447,289.950 395.828,287.231 394.665,284.043 C393.502,280.856 392.921,277.326 392.921,273.450 C392.921,269.575 393.502,266.059 394.665,262.903 C395.828,259.747 397.462,257.043 399.569,254.793 ZM407.772,285.168 C409.878,288.044 412.817,289.481 416.589,289.481 C420.361,289.481 423.299,288.044 425.405,285.168 C427.511,282.294 428.564,278.388 428.564,273.450 C428.564,268.575 427.511,264.716 425.405,261.872 C423.299,259.028 420.361,257.606 416.589,257.606 C412.817,257.606 409.878,259.028 407.772,261.872 C405.666,264.716 404.614,268.575 404.614,273.450 C404.614,278.388 405.666,282.294 407.772,285.168 ZM472.127,225.262 C474.768,225.262 477.093,225.497 479.105,225.965 C481.116,226.434 482.625,226.856 483.631,227.231 L481.463,236.606 C480.393,236.106 479.152,235.701 477.738,235.387 C476.324,235.075 474.799,234.918 473.165,234.918 C471.341,234.918 469.801,235.185 468.544,235.715 C467.286,236.247 466.281,236.981 465.527,237.918 C464.773,238.856 464.238,239.997 463.924,241.340 C463.609,242.685 463.452,244.138 463.452,245.700 L463.452,248.981 L481.368,248.981 L481.368,258.450 L463.452,258.450 L463.452,298.012 L452.043,298.012 L452.043,245.512 C452.043,239.200 453.708,234.247 457.040,230.653 C460.372,227.059 465.400,225.262 472.127,225.262 ZM530.777,232.387 C540.268,232.387 547.545,234.107 552.606,237.543 C557.665,240.981 560.197,246.356 560.197,253.668 C560.197,257.481 559.520,260.747 558.169,263.465 C556.817,266.184 554.853,268.403 552.276,270.122 C549.697,271.841 546.555,273.107 542.846,273.918 C539.136,274.731 534.893,275.137 530.117,275.137 L524.176,275.137 L524.176,298.012 L512.295,298.012 L512.295,233.981 C515.060,233.357 518.125,232.935 521.489,232.715 C524.851,232.497 527.948,232.387 530.777,232.387 ZM524.176,265.012 L529.928,265.012 C535.648,265.012 540.048,264.215 543.129,262.622 C546.209,261.028 547.750,258.013 547.750,253.575 C547.750,251.451 547.340,249.669 546.524,248.231 C545.706,246.794 544.575,245.669 543.129,244.856 C541.682,244.044 539.970,243.466 537.990,243.122 C536.010,242.779 533.888,242.606 531.625,242.606 C528.608,242.606 526.124,242.700 524.176,242.887 L524.176,265.012 ZM589.709,247.950 C590.464,247.950 591.343,247.997 592.350,248.090 C593.354,248.184 594.361,248.310 595.367,248.465 C596.372,248.622 597.347,248.809 598.290,249.028 C599.233,249.247 599.987,249.450 600.553,249.637 L598.573,259.200 C597.630,258.888 596.325,258.559 594.660,258.215 C592.993,257.872 591.060,257.700 588.861,257.700 C587.602,257.700 586.268,257.826 584.853,258.075 C583.439,258.325 582.449,258.543 581.883,258.731 L581.883,298.012 L570.473,298.012 L570.473,251.325 C572.673,250.513 575.424,249.747 578.724,249.028 C582.024,248.310 585.686,247.950 589.709,247.950 ZM611.114,271.340 C613.000,270.122 615.183,269.247 617.668,268.715 C620.150,268.185 622.743,267.918 625.447,267.918 C626.704,267.918 628.024,267.997 629.407,268.153 C630.789,268.309 632.267,268.575 633.839,268.950 L633.839,267.075 C633.839,265.762 633.681,264.513 633.368,263.325 C633.052,262.138 632.503,261.091 631.717,260.184 C630.931,259.279 629.893,258.576 628.606,258.075 C627.317,257.575 625.697,257.325 623.750,257.325 C621.109,257.325 618.689,257.512 616.489,257.887 C614.288,258.262 612.496,258.700 611.114,259.200 L609.700,250.012 C611.145,249.513 613.250,249.013 616.017,248.512 C618.783,248.013 621.737,247.762 624.881,247.762 C628.653,247.762 631.826,248.231 634.405,249.168 C636.982,250.106 639.040,251.418 640.581,253.106 C642.121,254.793 643.221,256.841 643.881,259.247 C644.541,261.653 644.871,264.294 644.871,267.168 L644.871,296.887 C643.111,297.262 640.454,297.716 636.904,298.247 C633.351,298.777 629.344,299.043 624.881,299.043 C621.926,299.043 619.223,298.762 616.772,298.200 C614.320,297.637 612.229,296.732 610.501,295.481 C608.771,294.231 607.420,292.607 606.447,290.606 C605.471,288.606 604.985,286.138 604.985,283.200 C604.985,280.387 605.535,278.013 606.635,276.075 C607.734,274.138 609.228,272.559 611.114,271.340 ZM618.941,288.497 C620.638,289.528 622.932,290.043 625.824,290.043 C629.344,290.043 632.015,289.856 633.839,289.481 L633.839,276.918 C633.210,276.731 632.298,276.543 631.104,276.356 C629.910,276.168 628.589,276.075 627.144,276.075 C625.886,276.075 624.613,276.168 623.325,276.356 C622.036,276.543 620.874,276.888 619.836,277.387 C618.799,277.888 617.965,278.591 617.338,279.497 C616.708,280.403 616.395,281.544 616.395,282.918 C616.395,285.606 617.243,287.465 618.941,288.497 ZM714.176,248.981 L731.715,248.981 L731.715,258.450 L714.176,258.450 L714.176,278.418 C714.176,282.356 714.804,285.168 716.062,286.856 C717.319,288.543 719.456,289.387 722.474,289.387 C724.548,289.387 726.387,289.169 727.990,288.731 C729.593,288.294 730.866,287.887 731.809,287.512 L733.695,296.512 C732.375,297.075 730.645,297.653 728.509,298.247 C726.371,298.840 723.856,299.137 720.965,299.137 C717.444,299.137 714.506,298.668 712.149,297.731 C709.791,296.793 707.920,295.434 706.538,293.653 C705.155,291.872 704.181,289.715 703.615,287.184 C703.049,284.653 702.766,281.763 702.766,278.512 L702.766,236.043 L714.176,234.168 L714.176,248.981 ZM748.499,227.606 C750.385,227.606 752.019,228.231 753.402,229.481 C754.784,230.732 755.477,232.450 755.477,234.637 C755.477,236.763 754.784,238.450 753.402,239.700 C752.019,240.951 750.385,241.575 748.499,241.575 C746.550,241.575 744.883,240.951 743.501,239.700 C742.118,238.450 741.427,236.763 741.427,234.637 C741.427,232.450 742.118,230.732 743.501,229.481 C744.883,228.231 746.550,227.606 748.499,227.606 ZM754.251,298.012 L742.841,298.012 L742.841,248.981 L754.251,248.981 L754.251,298.012 Z" class="cls-1"/>
    <path d="M271.547,181.031 C254.901,181.031 241.406,167.586 241.406,151.000 C241.406,134.414 254.901,120.969 271.547,120.969 C288.193,120.969 301.687,134.414 301.687,151.000 C301.687,167.586 288.193,181.031 271.547,181.031 ZM271.547,61.063 C254.901,61.063 241.406,47.617 241.406,31.031 C241.406,14.445 254.901,1.000 271.547,1.000 C288.193,1.000 301.687,14.445 301.687,31.031 C301.687,47.617 288.193,61.063 271.547,61.063 ZM150.844,301.000 C134.206,301.000 120.719,287.555 120.719,270.969 C120.719,254.383 134.206,240.937 150.844,240.937 C167.481,240.937 180.969,254.383 180.969,270.969 C180.969,287.555 167.481,301.000 150.844,301.000 ZM150.844,181.031 C134.206,181.031 120.719,167.586 120.719,151.000 C120.719,134.414 134.206,120.969 150.844,120.969 C167.481,120.969 180.969,134.414 180.969,151.000 C180.969,167.586 167.481,181.031 150.844,181.031 ZM150.844,61.063 C134.206,61.063 120.719,47.617 120.719,31.031 C120.719,14.445 134.206,1.000 150.844,1.000 C167.481,1.000 180.969,14.445 180.969,31.031 C180.969,47.617 167.481,61.063 150.844,61.063 ZM30.141,301.000 C13.494,301.000 0.000,287.555 0.000,270.969 C0.000,254.383 13.494,240.937 30.141,240.937 C46.787,240.937 60.281,254.383 60.281,270.969 C60.281,287.555 46.787,301.000 30.141,301.000 ZM30.141,181.031 C13.494,181.031 0.000,167.586 0.000,151.000 C0.000,134.414 13.494,120.969 30.141,120.969 C46.787,120.969 60.281,134.414 60.281,151.000 C60.281,167.586 46.787,181.031 30.141,181.031 ZM30.141,61.063 C13.494,61.063 0.000,47.617 0.000,31.031 C0.000,14.445 13.494,1.000 30.141,1.000 C46.787,1.000 60.281,14.445 60.281,31.031 C60.281,47.617 46.787,61.063 30.141,61.063 ZM271.547,240.937 C288.193,240.937 301.687,254.383 301.687,270.969 C301.687,287.555 288.193,301.000 271.547,301.000 C254.901,301.000 241.406,287.555 241.406,270.969 C241.406,254.383 254.901,240.937 271.547,240.937 Z" class="cls-2"/>
  </g>
</svg>
